<svg xmlns="http://www.w3.org/2000/svg" viewBox="0 0 293.75 151"><defs><style>.cls-1{fill:#fff;}.cls-2,.cls-3{fill:red;}.cls-3{font-size:48px;font-family:MonotypeCorsiva, Monotype Corsiva;}</style></defs><g id="Layer_2" data-name="Layer 2"><g id="Layer_1-2" data-name="Layer 1"><ellipse cx="71.5" cy="75" rx="71" ry="45.5"/><path d="M71.5,30C110.37,30,142,50.19,142,75s-31.63,45-70.5,45S1,99.81,1,75,32.63,30,71.5,30m0-1C32,29,0,49.59,0,75s32,46,71.5,46S143,100.41,143,75,111,29,71.5,29Z"/><ellipse class="cls-1" cx="33.75" cy="59.25" rx="10.75" ry="15.25"/><path d="M33.75,44.5C39.4,44.5,44,51.12,44,59.25S39.4,74,33.75,74,23.5,67.38,23.5,59.25,28.1,44.5,33.75,44.5m0-1c-6.21,0-11.25,7-11.25,15.75S27.54,75,33.75,75,45,68,45,59.25,40,43.5,33.75,43.5Z"/><ellipse cx="33.5" cy="66" rx="6" ry="6.5"/><path d="M33.5,60a6,6,0,0,1,0,12,6,6,0,0,1,0-12m0-1a7,7,0,0,0,0,14,7,7,0,0,0,0-14Z"/><ellipse class="cls-1" cx="65" cy="59.5" rx="10.75" ry="15.25"/><path d="M65,44.75c5.65,0,10.25,6.62,10.25,14.75S70.65,74.25,65,74.25,54.75,67.63,54.75,59.5,59.35,44.75,65,44.75m0-1c-6.21,0-11.25,7-11.25,15.75s5,15.75,11.25,15.75,11.25-7,11.25-15.75S71.21,43.75,65,43.75Z"/><ellipse cx="64.75" cy="66.25" rx="6" ry="6.5"/><path d="M64.75,60.25a6,6,0,1,1-5.5,6,5.77,5.77,0,0,1,5.5-6m0-1a7,7,0,1,0,6.5,7,6.76,6.76,0,0,0-6.5-7Z"/><path class="cls-2" d="M182,16.05q47.9-.32,95.78.26c-18.39,17-46.69,16.84-68.9,28.4l38.43,2.91c5.13.38,12.05,3.1,10.7,8.06A343.85,343.85,0,0,0,206,64c-1.58,3,2.62,5.62,5.9,6.42l80.37,19.64c-12.38,6-26.44,7.31-40.14,8.53L217,101.72c20.33,4.94,40,12.38,59.52,19.8a299.06,299.06,0,0,1-93.34,5.83"/><path class="cls-2" d="M182,17.55q37.41-.24,74.83.05l20.95.21-1.06-2.56c-14.53,13.32-35.08,16-53.15,21.87a102,102,0,0,0-15.44,6.3c-1.42.73-.62,2.69.75,2.79l30.3,2.29c4.09.31,8.44.2,12.37,1.48,2.28.73,5.72,2.36,5,5.3l1.44-1.1Q243,55.43,228.07,58q-7.35,1.24-14.63,2.82c-2.46.53-4.95,1-7.38,1.67a2.18,2.18,0,0,0-1.76,1.74,4.26,4.26,0,0,0,.11,2.57c1.29,3.6,5.72,4.79,9,5.59l15,3.67,29.77,7.28,33.65,8.22-.36-2.74c-8.53,4.09-17.93,6-27.28,7.11-9.85,1.19-19.78,1.89-29.67,2.77L217,100.22c-1.59.14-2.15,2.52-.4,2.94,15.8,3.86,31.18,9.2,46.41,14.87q6.57,2.44,13.11,4.94v-2.9a297.68,297.68,0,0,1-72.28,7q-10.35-.25-20.66-1.24c-1.92-.18-1.91,2.82,0,3a301.48,301.48,0,0,0,73.39-2.08q10.23-1.55,20.35-3.8c1.57-.35,1.27-2.41,0-2.9-15.2-5.76-30.42-11.53-46-16.14q-6.7-2-13.51-3.66l-.39,3,31.92-2.84c9.64-.85,19.35-1.58,28.79-3.75A73.27,73.27,0,0,0,293,91.37a1.52,1.52,0,0,0-.36-2.75L221,71.12c-3.2-.79-6.56-1.37-9.68-2.42-1.29-.43-4.94-2-4-3.93l-.89.69A343.85,343.85,0,0,1,258,57.18a1.55,1.55,0,0,0,1.45-1.11c1.47-6.07-5.56-9-10.39-9.75-4-.59-8.09-.68-12.1-1l-13.06-1-15-1.14.76,2.8c17.62-9.11,38-10.65,55.75-19.5a58.28,58.28,0,0,0,13.45-9.14,1.52,1.52,0,0,0-1.06-2.56q-37.41-.45-74.83-.35-10.47,0-20.95.09a1.5,1.5,0,0,0,0,3Z"/><path class="cls-2" d="M181.33,15q-1.05,55.5.08,111"/><path class="cls-2" d="M179.83,15q-.81,43.3-.31,86.63.14,12.19.39,24.39c0,1.93,3,1.94,3,0q-.87-43.31-.43-86.63.12-12.2.35-24.39c0-1.93-3-1.93-3,0Z"/><rect x="103.5" y="0.5" width="78" height="150"/><path d="M181,1V150H104V1h77m1-1H103V151h79V0Z"/><text class="cls-3" transform="translate(153.4 126.3) rotate(-90.76)">Boom!</text></g></g></svg>