<svg xmlns="http://www.w3.org/2000/svg" xmlns:xlink="http://www.w3.org/1999/xlink" viewBox="0 0 254.65 365"><defs><style>.cls-1{fill:url(#linear-gradient);}.cls-2{fill:#fff;}.cls-3{fill:#f4ff08;}.cls-4{font-size:48px;font-family:ArialMT, Arial;}</style><linearGradient id="linear-gradient" x1="125.31" y1="4.51" x2="129.37" y2="362.91" gradientUnits="userSpaceOnUse"><stop offset="0" stop-color="#cce0f4"/><stop offset="0.06" stop-color="#c3dcf2"/><stop offset="0.16" stop-color="#a9d2ee"/><stop offset="0.29" stop-color="#80c2e7"/><stop offset="0.45" stop-color="#47acde"/><stop offset="0.55" stop-color="#1e9cd7"/><stop offset="0.88" stop-color="#0075be"/><stop offset="1" stop-color="#005b97"/></linearGradient></defs><g id="Layer_2" data-name="Layer 2"><g id="Layer_1-2" data-name="Layer 1"><rect class="cls-1" x="0.5" y="0.5" width="253.65" height="364" rx="23.5"/><path d="M230.65,1a23,23,0,0,1,23,23V341a23,23,0,0,1-23,23H24A23,23,0,0,1,1,341V24A23,23,0,0,1,24,1H230.65m0-1H24A24,24,0,0,0,0,24V341a24,24,0,0,0,24,24H230.65a24,24,0,0,0,24-24V24a24,24,0,0,0-24-24Z"/><rect x="31.33" y="341.71" width="192" height="6"/><path d="M222.83,342.21v5h-191v-5h191m1-1h-193v7h193v-7Z"/><rect x="24.5" y="89.5" width="6" height="187"/><path d="M30,90V276H25V90h5m1-1H24V277h7V89Z"/><rect x="224.5" y="89.5" width="6" height="187"/><path d="M230,90V276h-5V90h5m1-1h-7V277h7V89Z"/><circle cx="227.5" cy="302.25" r="7"/><path d="M227.5,295.75a6.5,6.5,0,1,1-6.5,6.5,6.51,6.51,0,0,1,6.5-6.5m0-1a7.5,7.5,0,1,0,7.5,7.5,7.5,7.5,0,0,0-7.5-7.5Z"/><circle cx="27.41" cy="302.25" r="7"/><path d="M27.41,295.75a6.5,6.5,0,1,1-6.5,6.5,6.51,6.51,0,0,1,6.5-6.5m0-1a7.5,7.5,0,1,0,7.5,7.5,7.5,7.5,0,0,0-7.5-7.5Z"/><ellipse class="cls-2" cx="70.55" cy="52.05" rx="30.4" ry="16.34"/><ellipse class="cls-2" cx="83.19" cy="39.07" rx="19.91" ry="12.31"/><ellipse class="cls-2" cx="37.99" cy="45.11" rx="17.76" ry="14.77"/><ellipse class="cls-2" cx="93.95" cy="58.54" rx="16.14" ry="13.43"/><ellipse class="cls-2" cx="52.79" cy="35.49" rx="10.49" ry="8.73"/><ellipse class="cls-2" cx="110.99" cy="65.92" rx="6.19" ry="5.15"/><ellipse class="cls-2" cx="35.84" cy="56.08" rx="17.22" ry="9.62"/><ellipse class="cls-2" cx="49.29" cy="65.92" rx="9.15" ry="6.04"/><ellipse class="cls-2" cx="24" cy="35.71" rx="11.84" ry="6.94"/><ellipse class="cls-2" cx="83.19" cy="72.59" rx="6.19" ry="6.27"/><ellipse class="cls-2" cx="68.66" cy="29.44" rx="5.38" ry="4.48"/><path class="cls-3" d="M65.3,81.79l-.38.08.1-.35Z"/><path class="cls-3" d="M72.28,79.16l-.49.26,0-.47Z"/><path class="cls-3" d="M224,65.43l-2.86-2.69,2.61-.9-2.47-1.61a1.13,1.13,0,0,0,0-.18l6.15-3.22-6.33-2.89a21.31,21.31,0,0,0-1-3.63l3.67-3.78-3.55-.39L223.28,41,215,42.11a24.41,24.41,0,0,0-3.45-3l1.1-6.91-5.62,3-.25-1.42-.05-2.71-.37.29L206,29.05l-5.19,5.58c-.7-.13-1.41-.24-2.13-.31l-4-7.45-2.23,4.88L190,29.16l-1,5.77-.61.16-3.1-3.1-.76,4.34-7.16-3.61,1.31,7,.16,0-.14.11,0-.15-6.61-2,1.19,3.12-.56-.08,1.59,2.82.19.51a22.07,22.07,0,0,0-2.14,3.29l-5.58,1,3.79,3.44a22,22,0,0,0-.76,4.46l-1.35.61.9.48-5.84,2.82,6.41,3-3,3,4.77.63.09-.14.08.16-.17,0-4,5.68,7.68-.34.07.09-1.76,3.56,4.51-.89q.66.54,1.35,1l-.74,5.37,4-2.24,1.1,8.78,4.26-4.16.24,2.12,4.76-4.56,2.64,5.13,1.2-2.51,2.68,3.51,1.94-7,.09-.36.29.27,5.57,5.38.92-7.75.05-.47.44.21,5.13,2.47L213.2,76l5,.78L217.29,75l5,1-3.7-7.51a20.78,20.78,0,0,0,1.18-2.36ZM107.92,50.77h0Z"/><polygon class="cls-3" points="78.13 57.37 78.11 57.38 78.12 57.37 78.13 57.37"/><polygon class="cls-3" points="78.13 57.37 78.11 57.38 78.12 57.37 78.13 57.37"/><path class="cls-3" d="M35.19,68.27l-.17,0,.09-.13Z"/><path class="cls-3" d="M42.19,41.2l-.14.11,0-.16Z"/><path class="cls-3" d="M35.19,68.27l-.17,0,.09-.13Z"/><path class="cls-3" d="M42.19,41.2l-.14.11,0-.16Z"/><polygon class="cls-3" points="78.13 57.37 78.11 57.38 78.12 57.37 78.13 57.37"/><polygon class="cls-3" points="78.13 57.37 78.11 57.38 78.12 57.37 78.13 57.37"/><rect x="31.5" y="15.81" width="191.71" height="6"/><path d="M222.71,16.31v5H32v-5H222.71m1-1H31v7H223.71v-7Z"/><circle cx="27.5" cy="58.33" r="7"/><path d="M27.5,51.83a6.5,6.5,0,1,1-6.5,6.5,6.51,6.51,0,0,1,6.5-6.5m0-1a7.5,7.5,0,1,0,7.5,7.5,7.5,7.5,0,0,0-7.5-7.5Z"/><text class="cls-4" transform="translate(70.02 76.67)">Shop</text><circle cx="227.5" cy="58.33" r="7"/><path d="M227.5,51.83a6.5,6.5,0,1,1-6.5,6.5,6.51,6.51,0,0,1,6.5-6.5m0-1a7.5,7.5,0,1,0,7.5,7.5,7.5,7.5,0,0,0-7.5-7.5Z"/></g></g></svg>