<svg xmlns="http://www.w3.org/2000/svg" xmlns:xlink="http://www.w3.org/1999/xlink" viewBox="0 0 222.6 212.55"><defs><style>.cls-1,.cls-6{fill:none;}.cls-2{fill:#fbb03b;}.cls-3{fill:#fff;}.cls-4{clip-path:url(#clip-path);}.cls-5{fill:red;}.cls-5,.cls-6{stroke:#000;stroke-miterlimit:10;}</style><clipPath id="clip-path"><rect class="cls-1" x="64.21" y="130.22" width="95.62" height="38.6" transform="translate(224.65 298.58) rotate(179.76)"/></clipPath></defs><title>Asset 1</title><g id="Layer_2" data-name="Layer 2"><g id="Layer_1-2" data-name="Layer 1"><polygon class="cls-2" points="56.85 135.61 1.08 82.58 77.11 70.57 110.31 1.13 145.23 69.72 221.53 79.85 167.08 134.25 181.03 209.95 112.46 174.97 44.78 211.63 56.85 135.61"/><path d="M110.33,2.26l34.33,67.46.24.47.52.06,75,10-53.55,53.5-.37.37.09.52L180.35,209l-67.43-34.39-.47-.24-.46.25L45.43,210.71,57.31,136l.08-.52-.38-.36L2.16,82.91,76.92,71.1l.52-.08.23-.48L110.33,2.26m0-2.26L76.77,70.11,0,82.24,56.32,135.8,44.13,212.55l68.34-37,69.23,35.31-14.08-76.43,55-54.93-77-10.23L110.3,0Z"/><circle class="cls-3" cx="86.25" cy="102.53" r="17"/><path d="M86.25,86a16.5,16.5,0,1,1-16.5,16.5A16.52,16.52,0,0,1,86.25,86m0-1a17.5,17.5,0,1,0,17.5,17.5A17.49,17.49,0,0,0,86.25,85Z"/><circle class="cls-3" cx="139.25" cy="102.53" r="17"/><path d="M139.25,86a16.5,16.5,0,1,1-16.5,16.5A16.52,16.52,0,0,1,139.25,86m0-1a17.5,17.5,0,1,0,17.5,17.5A17.49,17.49,0,0,0,139.25,85Z"/><circle cx="77.03" cy="101.68" r="8.5"/><path d="M77,93.68a8,8,0,1,1-8,8,8,8,0,0,1,8-8m0-1a9,9,0,1,0,9,9,9,9,0,0,0-9-9Z"/><circle cx="147.75" cy="103.03" r="8.5"/><path d="M147.75,95a8,8,0,1,1-8,8,8,8,0,0,1,8-8m0-1a9,9,0,1,0,9,9,9,9,0,0,0-9-9Z"/><g class="cls-4"><path class="cls-5" d="M81.38,144.8a32.34,32.34,0,0,1-3.45-14.43C77.86,112,93,97.13,111.8,97.05s34.06,14.71,34.14,33-15.09,33.24-33.87,33.32a34.09,34.09,0,0,1-30.69-18.6"/></g><line class="cls-6" x1="77.75" y1="129.53" x2="145.75" y2="129.53"/></g></g></svg>