<svg xmlns="http://www.w3.org/2000/svg" xmlns:xlink="http://www.w3.org/1999/xlink" viewBox="0 0 229 344"><defs><style>.cls-1{fill:none;}.cls-2{fill:blue;}.cls-3{fill:#fff;}.cls-4{clip-path:url(#clip-path);}.cls-5{fill:red;stroke:#000;stroke-miterlimit:10;}</style><clipPath id="clip-path"><rect class="cls-1" x="58.16" y="77.01" width="112.5" height="48.1" transform="translate(-0.66 0.75) rotate(-0.37)"/></clipPath></defs><title>Asset 1</title><g id="Layer_2" data-name="Layer 2"><g id="Layer_1-2" data-name="Layer 1"><circle class="cls-2" cx="114.5" cy="229.5" r="114"/><path d="M114.5,116a113.49,113.49,0,1,1-80.26,33.24A112.79,112.79,0,0,1,114.5,116m0-1A114.5,114.5,0,1,0,229,229.5,114.5,114.5,0,0,0,114.5,115Z"/><circle class="cls-2" cx="114.5" cy="82.5" r="82"/><path d="M114.5,1A81.5,81.5,0,1,1,33,82.5,81.59,81.59,0,0,1,114.5,1m0-1A82.5,82.5,0,1,0,197,82.5,82.5,82.5,0,0,0,114.5,0Z"/><circle class="cls-3" cx="80.5" cy="49.5" r="17"/><path d="M80.5,33A16.5,16.5,0,1,1,64,49.5,16.52,16.52,0,0,1,80.5,33m0-1A17.5,17.5,0,1,0,98,49.5,17.51,17.51,0,0,0,80.5,32Z"/><circle class="cls-3" cx="146.5" cy="49.5" r="17"/><path d="M146.5,33A16.5,16.5,0,1,1,130,49.5,16.52,16.52,0,0,1,146.5,33m0-1A17.5,17.5,0,1,0,164,49.5,17.51,17.51,0,0,0,146.5,32Z"/><circle cx="80" cy="56" r="8.5"/><path d="M80,48a8,8,0,1,1-8,8,8,8,0,0,1,8-8m0-1a9,9,0,1,0,9,9,9,9,0,0,0-9-9Z"/><circle cx="147" cy="56" r="8.5"/><path d="M147,48a8,8,0,1,1-8,8,8,8,0,0,1,8-8m0-1a9,9,0,1,0,9,9,9,9,0,0,0-9-9Z"/><g class="cls-4"><path class="cls-5" d="M150.47,106.87a42.58,42.58,0,0,1,4.1,18c.15,22.83-17.64,41.45-39.74,41.59S74.71,148.2,74.56,125.37,92.2,83.92,114.29,83.78a39.91,39.91,0,0,1,36.18,23.09"/></g></g></g></svg>