<svg xmlns="http://www.w3.org/2000/svg" xmlns:xlink="http://www.w3.org/1999/xlink" viewBox="0 0 306.15 448.52"><defs><style>.cls-1,.cls-8{fill:none;}.cls-2{fill:#a23f00;}.cls-3,.cls-9{fill:#fff;}.cls-4{fill:#1400b9;}.cls-5{clip-path:url(#clip-path);}.cls-6{fill:#e70000;}.cls-7{clip-path:url(#clip-path-2);}.cls-8,.cls-9{stroke:#000;stroke-miterlimit:10;}.cls-10{clip-path:url(#clip-path-3);}.cls-11{clip-path:url(#clip-path-4);}.cls-12{clip-path:url(#clip-path-5);}.cls-13{clip-path:url(#clip-path-6);}</style><clipPath id="clip-path"><rect class="cls-1" x="86.87" y="98.53" width="135" height="58" transform="translate(308.62 255.19) rotate(-179.95)"/></clipPath><clipPath id="clip-path-2"><polyline class="cls-1" points="197.87 177.04 101.36 178.52 100.11 99.97 196.61 98.49 197.87 177.04"/></clipPath><clipPath id="clip-path-3"><polyline class="cls-1" points="58.03 101.44 57.87 63.71 82.25 63.52 82.41 101.25 58.03 101.44"/></clipPath><clipPath id="clip-path-4"><polyline class="cls-1" points="241.01 101.68 241.17 63.95 216.79 63.77 216.63 101.5 241.01 101.68"/></clipPath><clipPath id="clip-path-5"><polyline class="cls-1" points="240.75 102.08 240.91 64.35 216.53 64.17 216.37 101.9 240.75 102.08"/></clipPath><clipPath id="clip-path-6"><polyline class="cls-1" points="57.53 101.08 57.37 63.35 81.75 63.17 81.91 100.9 57.53 101.08"/></clipPath></defs><title>Asset 1</title><g id="Layer_2" data-name="Layer 2"><g id="Layer_1-2" data-name="Layer 1"><rect class="cls-2" x="0.37" y="190.02" width="117" height="34" transform="translate(-104.4 66.79) rotate(-33.47)"/><path d="M98.15,161.27l18.2,27.53-96.77,64L1.39,225.24l96.76-64m.29-1.38L0,225l19.3,29.2,98.44-65.07-19.3-29.2Z"/><rect class="cls-2" x="229.87" y="147.52" width="34" height="117" transform="translate(-58.86 305.62) rotate(-57.89)"/><path d="M206.51,161.22l98.26,61.66-17.54,28L189,189.17l17.54-27.95m-.32-1.38-18.6,29.65,100,62.72,18.61-29.65-100-62.72Z"/><rect class="cls-3" x="98.37" y="143.02" width="108" height="167"/><path d="M205.87,143.52v166h-107v-166h107m1-1h-109v168h109v-168Z"/><rect class="cls-4" x="98.37" y="311.02" width="34" height="117"/><path d="M131.87,311.52v116h-33v-116h33m1-1h-35v118h35v-118Z"/><rect class="cls-4" x="171.37" y="311.02" width="35" height="119"/><path d="M205.87,311.52v118h-34v-118h34m1-1h-36v120h36v-120Z"/><circle class="cls-2" cx="149.87" cy="82.52" r="69.5"/><path d="M149.87,13.52a69,69,0,1,1-69,69,69.08,69.08,0,0,1,69-69m0-1a70,70,0,1,0,70,70,70,70,0,0,0-70-70Z"/><g class="cls-5"><ellipse class="cls-6" cx="148.04" cy="99.58" rx="41.17" ry="29.53"/></g><g class="cls-7"><path class="cls-8" d="M122,121.89c-8.8-5.39-14.43-13.45-14.58-22.54-.27-16.66,18-30.45,40.86-30.8s41.56,12.87,41.83,29.53-18,30.45-40.86,30.8a50.9,50.9,0,0,1-27.25-7"/></g><line class="cls-8" x1="106.86" y1="99.63" x2="190.29" y2="98.02"/><rect class="cls-9" x="136.31" y="98.82" width="8.18" height="12.83"/><rect class="cls-9" x="152.67" y="98.82" width="8.18" height="12.83"/><circle class="cls-3" cx="121.23" cy="63.72" r="17"/><path d="M121.23,47.22a16.5,16.5,0,1,1-16.5,16.5,16.52,16.52,0,0,1,16.5-16.5m0-1a17.5,17.5,0,1,0,17.5,17.5,17.5,17.5,0,0,0-17.5-17.5Z"/><circle cx="121.87" cy="63.52" r="8.5"/><path d="M121.87,55.52a8,8,0,1,1-8,8,8,8,0,0,1,8-8m0-1a9,9,0,1,0,9,9,9,9,0,0,0-9-9Z"/><circle class="cls-3" cx="173.23" cy="63.72" r="17"/><path d="M173.23,47.22a16.5,16.5,0,1,1-16.5,16.5,16.52,16.52,0,0,1,16.5-16.5m0-1a17.5,17.5,0,1,0,17.5,17.5,17.5,17.5,0,0,0-17.5-17.5Z"/><circle cx="173.87" cy="64.52" r="8.5"/><path d="M173.87,56.52a8,8,0,1,1-8,8,8,8,0,0,1,8-8m0-1a9,9,0,1,0,9,9,9,9,0,0,0-9-9Z"/><ellipse cx="147.37" cy="87.52" rx="5" ry="5.5"/><path d="M147.37,82.52a5,5,0,1,1-4.5,5,4.78,4.78,0,0,1,4.5-5m0-1a6,6,0,1,0,5.5,6,5.77,5.77,0,0,0-5.5-6Z"/><path class="cls-8" d="M98.37,50a25,25,0,0,1,22-13c13.47.12,20.58,11.32,21,12"/><path class="cls-8" d="M152.37,49.35a25,25,0,0,1,22-13c13.48.12,20.59,11.32,21,12"/><path class="cls-4" d="M98.37,283h108v34c-.53,0-1.35,0-2.59,0l-8.41,0c-7.07,0-16.78,0-27.35,0-54.72,0-66.87.06-69.65.16Z"/><path d="M205.87,283.52v33l-2.09,0-8.4,0c-7.06,0-16.77,0-27.33,0-14.57,0-32.07,0-46.81,0-6.82,0-12.65,0-16.79,0-2.87,0-4.56,0-5.58,0v-33h107m1-1h-109v35s38.86-.11,70.18-.11c21.12,0,38.82,0,38.82.11v-35Z"/><path class="cls-4" d="M120,315.94a69.4,69.4,0,0,1,2.14,10,1.51,1.51,0,0,0,1.84,1,1.54,1.54,0,0,0,1-1.85,69.4,69.4,0,0,0-2.14-10,1.5,1.5,0,0,0-2.89.8Z"/><path class="cls-4" d="M121.26,312.71a46.49,46.49,0,0,1,1.49,12.81c0,1.93,3,1.93,3,0a50,50,0,0,0-1.6-13.61c-.48-1.86-3.38-1.07-2.89.8Z"/><path class="cls-4" d="M124.84,312.72c.18.66.34,1.33.46,2,0,.16.06.31.08.47s0,.21.05.31,0,.21,0,.12,0-.06,0,.11,0,.21,0,.32,0,.32,0,.47a24.77,24.77,0,0,1,0,4.13h3v-2.34a1.5,1.5,0,0,0-3,0v2.34a1.52,1.52,0,0,0,1.5,1.5,1.54,1.54,0,0,0,1.5-1.5,26,26,0,0,0-.82-8.74,1.5,1.5,0,0,0-2.9.8Z"/><path class="cls-4" d="M125.78,314.28c0,.06.23.55.1.22,0,.12.09.24.14.36s.22.55.32.83c.2.53.38,1.07.55,1.62a30.46,30.46,0,0,1,.83,3.39,1.51,1.51,0,0,0,1.85,1.05,1.54,1.54,0,0,0,1.05-1.84,33.19,33.19,0,0,0-2.25-7.15,1.51,1.51,0,0,0-2.06-.53,1.55,1.55,0,0,0-.53,2Z"/><path class="cls-4" d="M126.67,311a21.13,21.13,0,0,0-9.6,14.23l1.45-1.1c-.58,0-1-3.53-1-4l-1.08-5.83c-.3-1.57-2.45-1.27-2.9,0l-1.17,3.33h2.89a12.55,12.55,0,0,1-.24-3.72h-3a13.37,13.37,0,0,0,1.58,6.23,1.5,1.5,0,0,0,2.35.31,32,32,0,0,0,3.7-5.91l-2.74-.36.65,4.51a1.51,1.51,0,0,0,2.51.66l4-4.92-2.51-.67,1.23,5.92a1.52,1.52,0,0,0,2.9,0,4,4,0,0,0-.76-3.77c-1.11-1.05-2.51-.57-3.53.3-1.62,1.38-3.16,2.88-4.74,4.31-.72.66-2.88,2.9-3.81,1.47-.34-.51-.14-1.54-.16-2.12a6.35,6.35,0,0,0-.36-2.07,5.22,5.22,0,0,0-2.89-2.85c-3-1.29-6.59-.49-9.23,1.26-1.6,1.06-.1,3.66,1.52,2.59,1.91-1.27,5.17-2.34,7.22-.71.89.71.71,1.82.74,2.85a4.72,4.72,0,0,0,1.18,3.38c2.1,2.08,5.06.79,7-.81,1.2-1,2.35-2.13,3.52-3.19l1.09-1c.24-.22.82-.55.91-.83.3-.17.23-.28-.19-.34-.33-.27-.44-.28-.32,0-.08.14,0,.56,0,.74h2.9L124.42,313a1.5,1.5,0,0,0-2.5-.66l-4,4.92,2.51.66-.66-4.51A1.51,1.51,0,0,0,117,313a28.2,28.2,0,0,1-3.23,5.31l2.36.3a10.06,10.06,0,0,1-1.17-4.72,1.5,1.5,0,0,0-3,0,15.18,15.18,0,0,0,.35,4.51c.34,1.55,2.43,1.31,2.89,0l1.18-3.32h-2.9c.51,2.72,1,5.44,1.52,8.16.36,1.84,1.35,3.87,3.51,3.83A1.53,1.53,0,0,0,120,326a18.27,18.27,0,0,1,8.22-12.44c1.63-1,.13-3.63-1.51-2.59Z"/><path class="cls-4" d="M175.48,317.75a49.69,49.69,0,0,1,14.76-.24c4.71.76,9.36,1.75,14.15.95l-.8-2.89a51.89,51.89,0,0,1-21.37,1.16l.66,2.51a3.55,3.55,0,0,1,3.28-1.47v-3l-12.61.6c-1.39.07-2.16,2.08-.76,2.79a14.74,14.74,0,0,0,7.48,1.64c1.92-.09,1.93-3.09,0-3a11.49,11.49,0,0,1-6-1.23l-.76,2.8,12.61-.6a1.5,1.5,0,0,0,0-3,6.29,6.29,0,0,0-5.4,2.35c-.61.77-.59,2.31.66,2.51a55.64,55.64,0,0,0,23-1.17c1.9-.5,1.07-3.2-.8-2.89-4.82.8-9.66-.58-14.41-1.22s-9.64-.15-14.5.5a1.52,1.52,0,0,0-1.05,1.85,1.55,1.55,0,0,0,1.85,1.05Z"/><path class="cls-4" d="M130.27,315.32q-15,.65-30,.24c-1.93-.05-1.93,2.95,0,3q15,.4,30-.24c1.93-.08,1.94-3.08,0-3Z"/><path class="cls-4" d="M204.27,317.82a1.5,1.5,0,0,0,0-3,1.5,1.5,0,0,0,0,3Z"/><rect x="80.37" y="428.02" width="52" height="20"/><path d="M131.87,428.52v19h-51v-19h51m1-1h-53v21h53v-21Z"/><rect x="171.37" y="428.02" width="52" height="20"/><path d="M222.87,428.52v19h-51v-19h51m1-1h-53v21h53v-21Z"/><rect class="cls-3" x="92.37" y="428.02" width="3" height="11"/><path d="M94.87,428.52v10h-2v-10h2m1-1h-4v12h4v-12Z"/><rect class="cls-3" x="209.37" y="428.02" width="3" height="11"/><path d="M211.87,428.52v10h-2v-10h2m1-1h-4v12h4v-12Z"/><rect class="cls-3" x="201.37" y="428.02" width="3" height="11"/><path d="M203.87,428.52v10h-2v-10h2m1-1h-4v12h4v-12Z"/><rect class="cls-3" x="101.37" y="428.02" width="3" height="11"/><path d="M103.87,428.52v10h-2v-10h2m1-1h-4v12h4v-12Z"/><path d="M117.65,140.31a55.35,55.35,0,0,0,6.39,21.6,36.58,36.58,0,0,1,5.23-7.8,29.25,29.25,0,0,0,4.45,8.52l3.4-7.2,7.27,21.95a35.24,35.24,0,0,0,3.7-9.62l3,8.52,3.23-9.64,2.87,4.09a74.92,74.92,0,0,0,6-12.53,43.5,43.5,0,0,1,5.17,6.08l1.82-8.59a10.41,10.41,0,0,1,3.61,2.63c1.57-3.57,5-5.87,7.84-8.57s5.22-6.68,3.85-10.34"/><path d="M116.15,140.31a58.3,58.3,0,0,0,6.59,22.36,1.51,1.51,0,0,0,2.59,0,37,37,0,0,1,5-7.5l-2.51-.67a31.7,31.7,0,0,0,4.6,8.89c.6.81,2.06,1.12,2.59,0l3.4-7.2-2.74-.36,7.27,21.95a1.52,1.52,0,0,0,2.74.36,38.11,38.11,0,0,0,3.86-10h-2.89l2.95,8.51a1.51,1.51,0,0,0,2.89,0l3.24-9.63-2.74.36,2.87,4.09a1.52,1.52,0,0,0,2.59,0,80.35,80.35,0,0,0,6.19-12.89l-2.5.66a44,44,0,0,1,4.94,5.78c.68,1,2.45,1,2.74-.36l1.82-8.59-2.21.89a10.34,10.34,0,0,1,3.31,2.4,1.51,1.51,0,0,0,2.36-.31c1.77-3.83,5.49-6,8.29-9s4.93-7,3.54-11.1c-.62-1.81-3.52-1-2.89.8,1.27,3.74-1.59,7.19-4.18,9.55s-5.76,4.77-7.35,8.2l2.35-.3a12.3,12.3,0,0,0-3.91-2.87,1.53,1.53,0,0,0-2.21.9l-1.81,8.59,2.74-.36a49.19,49.19,0,0,0-5.41-6.38,1.52,1.52,0,0,0-2.51.66A75.93,75.93,0,0,1,155.86,170h2.59l-2.87-4.09a1.52,1.52,0,0,0-2.74.36l-3.24,9.63h2.89l-3-8.51c-.46-1.32-2.54-1.54-2.89,0a35.37,35.37,0,0,1-3.56,9.25l2.75.36L138.57,155c-.37-1.11-2.16-1.6-2.75-.35l-3.4,7.2H135a29.46,29.46,0,0,1-4.3-8.17,1.51,1.51,0,0,0-2.5-.67,40.43,40.43,0,0,0-5.47,8.12h2.59a54.53,54.53,0,0,1-6.18-20.85c-.16-1.91-3.16-1.93-3,0Z"/><path d="M184.78,137.92l0,10,1.5-1.5a1.16,1.16,0,0,1-1-1,1.51,1.51,0,0,0-2.74-.36,43.2,43.2,0,0,0-3.79,7.34l2.74-.35-1-1.39c-.63-.93-2.54-1-2.74.36a8,8,0,0,1-1.47,3.67h2.59l-1-1.36a1.52,1.52,0,0,0-2.59,0,28.13,28.13,0,0,0-2,4.39l2.51-.67-2-2.52a1.5,1.5,0,0,0-2.12,0,1.54,1.54,0,0,0,0,2.12l2,2.53c.78,1,2.17.28,2.51-.67a24.9,24.9,0,0,1,1.72-3.66h-2.59l1,1.35a1.52,1.52,0,0,0,2.59,0,9.91,9.91,0,0,0,1.78-4.38l-2.75.35,1,1.39a1.52,1.52,0,0,0,2.74-.36,39.56,39.56,0,0,1,3.49-6.63l-2.74-.36a4.19,4.19,0,0,0,3.89,3.23,1.51,1.51,0,0,0,1.5-1.5l0-10a1.5,1.5,0,0,0-3,0Z"/><path d="M185.09,138.41a190.05,190.05,0,0,1-65.26,2.2"/><path d="M184.69,137a189.41,189.41,0,0,1-50.22,3.63q-7.16-.45-14.24-1.42c-1.89-.26-2.71,2.63-.8,2.89a192,192,0,0,0,51.63.24q7.26-1,14.43-2.45c1.88-.39,1.08-3.28-.8-2.89Z"/><path d="M117.17,141.53v.05l-.06-.4a1.88,1.88,0,0,1,0,.41l.05-.39a1.72,1.72,0,0,1-.13.48l.15-.36a2.43,2.43,0,0,1-.26.44l.23-.3a3.06,3.06,0,0,1-.36.36l.3-.24a1.76,1.76,0,0,1-.44.26l.36-.15a2.23,2.23,0,0,1-.44.13l.4-.06a2,2,0,0,1-.42,0l.4,0a1.8,1.8,0,0,1-.4-.1l.36.15a2.36,2.36,0,0,1-.38-.22l.3.23a2.73,2.73,0,0,1-.34-.34l.24.3a1.92,1.92,0,0,1-.27-.46l.15.36a2.48,2.48,0,0,1-.15-.55l.06.4a1.93,1.93,0,0,1,0-.48l-.05.4a1.45,1.45,0,0,1,.12-.42l-.16.35a2,2,0,0,1,.19-.31l-.24.3a3.7,3.7,0,0,1,.28-.28l-.3.24a1.69,1.69,0,0,1,.41-.24l-.36.15a2,2,0,0,1,.54-.15l-.4.06a1.88,1.88,0,0,1,.53,0l-.4,0a2.17,2.17,0,0,1,.5.13l-.36-.15a2.08,2.08,0,0,1,.38.22l-.31-.24a1.92,1.92,0,0,1,.29.28,1.5,1.5,0,0,0,2.56-1.06l-.05-.4a1.59,1.59,0,0,0-.39-.66,3.09,3.09,0,0,0-1.46-.93,3.57,3.57,0,0,0-1.75-.07,3.28,3.28,0,0,0-1.55.76,3,3,0,0,0-.92,1.47,3.5,3.5,0,0,0,.86,3.28,3.08,3.08,0,0,0,1.46.89,3.14,3.14,0,0,0,2.05-.16,3.53,3.53,0,0,0,1.65-1.43,2.73,2.73,0,0,0,.39-1,3.3,3.3,0,0,0,0-1.4,1.43,1.43,0,0,0-.69-.89,1.49,1.49,0,0,0-1.15-.15,1.51,1.51,0,0,0-.9.69l-.15.35a1.55,1.55,0,0,0,0,.8Z"/><path d="M86.71,49,90,43.24l-3.39,3.95c-1.44-10.08,4.94-19.43,11-27.61a45.16,45.16,0,0,1,6-7,32.18,32.18,0,0,1,10-5.74c12.24-4.72,25.67-5,38.78-5.31,2.84-.06,6.29.24,7.52,2.79l6.1-2a2.28,2.28,0,0,1,1.94,0c.79.53.63,1.75,1.16,2.54,1,1.54,3.35.4,5.17,0C178,4.16,181.31,7.66,185.13,8a22,22,0,0,1,2.82.16,8.17,8.17,0,0,1,3.44,2.15l8.39,7.45c4.93,4.37,10,8.87,13.05,14.7a32.52,32.52,0,0,1,2.77,7.34,15.25,15.25,0,0,1,.33,7.81c-.71,2.54-2.74,4.86-5.35,5.21-1.85-8.28-7.73-15-13.39-21.29a43.74,43.74,0,0,0-7.24-6.9,38.17,38.17,0,0,0-8.65-4.18c-12.71-4.73-26.37-7.88-39.82-6.12-7.49,1-14.7,3.47-21.86,5.93-5.24,1.81-10.61,3.68-14.88,7.23-5.94,4.93-9.38,12.82-16.3,16.25"/><path d="M88,49.72,91.32,44c.83-1.43-1.21-3.15-2.35-1.82l-3.39,4,2.56,1.06c-.82-6.21,1.31-12.06,4.38-17.37a86.93,86.93,0,0,1,5.15-7.76,58.68,58.68,0,0,1,6-7.5c4.49-4.46,10.76-6.76,16.77-8.34a97.63,97.63,0,0,1,19.48-2.77c3.67-.2,7.34-.29,11-.37,2.39-.05,6.25-.5,7.59,2a1.52,1.52,0,0,0,1.7.69l4.69-1.54c.47-.15,1.79-.84,2.21-.65-.22-.1-.17-.07-.07.12a7.61,7.61,0,0,1,.31,1.09c.93,2.57,3.47,2.49,5.71,1.9a6.7,6.7,0,0,1,3.14-.32,16.14,16.14,0,0,1,3.66,1.42A22.88,22.88,0,0,0,183,9.07c1.52.46,3.05.2,4.57.52,1.32.28,2.35,1.38,3.33,2.25l3.83,3.4c2.28,2,4.59,4,6.84,6.09,4.18,3.81,8.18,7.93,10.61,13.11a24.61,24.61,0,0,1,2.64,10.41c-.05,2.92-1.5,6-4.62,6.5l1.85,1c-2.18-9.39-9-16.84-15.39-23.73a33.33,33.33,0,0,0-11.88-8.49,113.43,113.43,0,0,0-14.91-5c-10.29-2.7-21-3.77-31.56-1.89a107.85,107.85,0,0,0-15.48,4.27A96.14,96.14,0,0,0,109,22.93c-4.52,2.35-7.9,5.77-11.07,9.7-3,3.69-5.89,7.6-10.2,9.8-1.72.88-.2,3.47,1.52,2.59,7.41-3.79,10.71-12,17.12-16.9,3.75-2.9,8.27-4.55,12.69-6.09,4.81-1.66,9.62-3.34,14.55-4.61A66.59,66.59,0,0,1,164,16.91a111.78,111.78,0,0,1,14.89,4.24c4.56,1.62,9.05,3.39,12.68,6.7a94.15,94.15,0,0,1,10.54,11.76,35.45,35.45,0,0,1,7,13.59,1.55,1.55,0,0,0,1.85,1A8.28,8.28,0,0,0,217,49c1.26-3.06.82-6.5,0-9.63a36.51,36.51,0,0,0-9.72-16.66c-4.75-4.87-10-9.32-15.19-13.76a9.82,9.82,0,0,0-3.4-2.15c-1.62-.51-3.33-.14-5-.63-2.54-.77-4.74-2.43-7.42-2.8a12.24,12.24,0,0,0-4.57.57c-.34.08-1.16.37-1.48.07s-.36-1.3-.58-1.76C168.89.56,167.2.41,165.55.89c-2.05.6-4.07,1.34-6.1,2l1.69.69C159.8,1.07,157,.28,154.36.09A93.81,93.81,0,0,0,144.3.26a122.59,122.59,0,0,0-21.54,2.32c-6.62,1.43-13.52,3.66-18.92,7.87a37.4,37.4,0,0,0-6.72,7.32c-2.07,2.77-4.12,5.57-6,8.5-3.92,6.23-7,13.41-6,20.92.15,1.14,1.61,2.17,2.56,1.06l3.39-4-2.36-1.82-3.31,5.73A1.5,1.5,0,0,0,88,49.72Z"/><g class="cls-10"><path class="cls-8" d="M75.38,72c1.7-3.42,4.22-5.59,7-5.61,5.17,0,9.39,7.17,9.43,16.09s-4.13,16.2-9.3,16.24-9.39-7.17-9.43-16.1A24.06,24.06,0,0,1,75.38,72"/></g><g class="cls-11"><path class="cls-8" d="M223.66,72.25c-1.7-3.42-4.22-5.59-7-5.61-5.17,0-9.39,7.17-9.43,16.1s4.12,16.19,9.29,16.23,9.39-7.17,9.43-16.09a23.94,23.94,0,0,0-2.25-10.63"/></g><path class="cls-2" d="M81.1,69.58a.24.24,0,0,1,0-.12l-.06.4a1.21,1.21,0,0,1,0-.18l-.15.36a1.59,1.59,0,0,1,.13-.22l-.23.3a5.44,5.44,0,0,1,.48-.48,2.56,2.56,0,0,0,.7-1.17,1.11,1.11,0,0,0,0-.6,1,1,0,0,0-.17-.56,1.31,1.31,0,0,0-.39-.42,1,1,0,0,0-.51-.26l-.4-.06a1.48,1.48,0,0,0-.76.21l-.3.23a1.59,1.59,0,0,0-.39.66.5.5,0,0,1,0,.13l.16-.35a2.39,2.39,0,0,1-.13.21l.23-.3c-.16.2-.37.35-.54.54s-.23.29-.34.43l-.1.17c-.06.13-.12.28-.17.42l0,.09a3.62,3.62,0,0,0-.06.46.21.21,0,0,0,0,.11,1.14,1.14,0,0,0,.12.58,1.27,1.27,0,0,0,.32.48A1,1,0,0,0,79,71a1.15,1.15,0,0,0,.58.13L80,71a1.56,1.56,0,0,0,.67-.39,1.52,1.52,0,0,0,.44-1.06Z"/><path class="cls-2" d="M83,95.79c-4.61-2-6.35-7.79-6.48-12.44a33.82,33.82,0,0,1,.94-7.95c.17-.79.27-2.62,1-3.11a7.23,7.23,0,0,1,1.42-.5,13.69,13.69,0,0,0,1.75-.89l-2.26-1.3c-.1,2-.4,4.13.24,6.09a1.51,1.51,0,0,0,3-.4l.15-2.42h-3c.31,3.37-.29,6.82.85,10.08a1.5,1.5,0,0,0,2.94-.4l.12-1.24h-3a39.08,39.08,0,0,0,.63,8.43c.3,1.65,3,1.28,3-.4a10.71,10.71,0,0,0-.24-1.7c-.39-1.78-2.77-1.16-2.94.4l-.61,5.39h3l-.11-1.81c-.11-1.91-3-1.94-3,0V93.9a1.5,1.5,0,0,0,3,0V92.71h-3a16.24,16.24,0,0,1-.14,2.87L83,96l0-6a1.5,1.5,0,0,0-3,0l-.1,1.78,2.94-.4c-.38-2-.72-4-1-6-.24-1.77-2.83-1.17-2.95.4-.16,2-.42,4-.78,6l2.94.39a31.81,31.81,0,0,1,.07-4.88h-3a45.21,45.21,0,0,0,.13,5.58c.14,1.55,2.64,2.19,2.95.4a23,23,0,0,0,.35-4.06c0-1.62-2.7-2.12-3-.4l-.18,1.22,2.95.39,0-7.89a1.5,1.5,0,0,0-3,0c-.09,1.69-.13,3.39-.13,5.08h3a23.34,23.34,0,0,1,.15-3.34h-3q-.23,3.36-.65,6.7h3c0-1.35-.12-2.7-.26-4-.15-1.58-2.51-2.15-2.94-.39L77,88.8l2.94.4-.08-4.61c0-1.63-2.59-2.11-2.94-.4a24.71,24.71,0,0,0-.46,3.53h3l0-5.17a1.51,1.51,0,0,0-3-.39l-.69,2.89,2.94.4a47.59,47.59,0,0,1,.38-5.6h-3l-.18,1.58c-.2,1.67,2.62,2.06,2.94.4.22-1.12.48-2.22.79-3.31l-3-.4.12,1.82c.1,1.62,2.51,2.12,3,.4a36.62,36.62,0,0,0,.74-4c.21-1.66-2.72-2.07-3-.4l-.09.3,2.79.75.37-4.69c.13-1.53-2.07-2-2.79-.75a10.72,10.72,0,0,0-1.23,3l3,.4a7.26,7.26,0,0,1,.58-2l-2.95-.4a45.31,45.31,0,0,1-.64,5.07l2.95.4.29-2.47c.21-1.79-2.41-1.88-3-.4a23.35,23.35,0,0,0-1,3.77A1.51,1.51,0,0,0,78.54,80L80,77.72,77.22,77,77,81.17a1.51,1.51,0,0,0,2.79.76,25.72,25.72,0,0,0,1.41-2.83l-2.79-.76a25.19,25.19,0,0,1,0,3c-.14,1.78,2.41,1.9,2.94.4l.68-1.9-3-.4a4.47,4.47,0,0,1-.25,1l2.94.4c-.14-2,.38-3.85-.27-5.81-.54-1.65-1.61-3.19-1.49-5H77q.08,6.62.14,13.24c0,2.13.05,4.25,0,6.37s-.5,4.17.17,6.19l2.2-1.69a2.11,2.11,0,0,1-.57-.62c-.3-.5,0-.52-.35,0l-1.29.74c-.39,0-.22-.09,0,.22s.27.34.4.5a9.76,9.76,0,0,0,1.33,1.32,16.08,16.08,0,0,0,3.19,2.24c2,1,4.57,1,6.07-.86,1.21-1.48-.9-3.62-2.12-2.12-1.08,1.33-2.74.32-3.83-.46a13.7,13.7,0,0,1-2.14-1.8,9.67,9.67,0,0,0-1.41-1.52c-1.17-.82-3-.59-3.08,1.13-.09,1.56,1.12,3,2.3,3.82a1.51,1.51,0,0,0,2.2-1.69c-.62-1.87-.12-4,0-5.89.09-2.12.05-4.24,0-6.37L80,70.07a1.5,1.5,0,0,0-3,0c-.12,1.85.67,3.4,1.33,5.07a6.63,6.63,0,0,1,.57,2.67c0,1-.21,2-.14,3.06a1.51,1.51,0,0,0,3,.4A8,8,0,0,0,82,79.45c.19-1.78-2.41-1.89-2.94-.4L78.41,81l3,.4a25.19,25.19,0,0,0,0-3c-.07-1.33-2.16-2.24-2.8-.76a25,25,0,0,1-1.41,2.84l2.8.75.24-4.2c.09-1.56-2-2-2.8-.76L76,78.53l2.74,1.15a22.4,22.4,0,0,1,1-3.77l-3-.4L76.49,78c-.2,1.67,2.63,2.06,2.94.4a48.31,48.31,0,0,0,.75-5.87c.12-1.84-2.35-1.82-3-.39a10.12,10.12,0,0,0-.68,2.77c-.21,1.7,2.54,2,2.94.4A8.42,8.42,0,0,1,80.42,73l-2.8-.76L77.25,77c-.12,1.59,2,1.9,2.8.76a2.06,2.06,0,0,0,.39-1l-2.94-.4a27.13,27.13,0,0,1-.64,3.23l3,.4-.12-1.82a1.5,1.5,0,0,0-2.94-.4c-.31,1.1-.58,2.2-.79,3.31l3,.4.18-1.58c.21-1.92-2.77-1.88-3,0a47.59,47.59,0,0,0-.38,5.6,1.51,1.51,0,0,0,3,.4l.69-2.9-2.94-.4,0,5.17a1.5,1.5,0,0,0,3,0A19.42,19.42,0,0,1,79.78,85l-3-.4.08,4.61a1.51,1.51,0,0,0,3,.4l.55-2.25-3-.4c.14,1.35.22,2.7.26,4,0,2,2.76,1.86,3,0q.42-3.34.65-6.7c.14-2-2.77-1.87-3,0a23.34,23.34,0,0,0-.15,3.34,1.5,1.5,0,0,0,3,0c0-1.69,0-3.39.13-5.08h-3l0,7.89c0,1.63,2.69,2.12,3,.4l.17-1.21-2.94-.4a18.69,18.69,0,0,1-.24,3.26l2.94.4a45.21,45.21,0,0,1-.13-5.58c.08-2-2.83-1.9-3,0a31.81,31.81,0,0,0-.07,4.88c.1,1.59,2.63,2.16,3,.4a65.62,65.62,0,0,0,.89-6.84l-2.94.4q.41,3,1,6c.34,1.74,2.85,1.2,3-.4L83,90H80l0,6c0,1.63,2.69,2.12,2.94.4a19.54,19.54,0,0,0,.25-3.66,1.5,1.5,0,0,0-3,0V93.9h3V91.62h-3l.11,1.81a1.5,1.5,0,0,0,3,0L83.93,88l-3,.4a3,3,0,0,1,.13.9l3-.4a35.46,35.46,0,0,1-.53-7.63c.06-2-2.83-1.89-3,0l-.12,1.24,3-.4c-1-3-.46-6.18-.74-9.28a1.5,1.5,0,0,0-3,0l-.15,2.42,3-.4c-.55-1.67-.22-3.56-.14-5.29A1.5,1.5,0,0,0,80,68.31c-1.14.68-2.69.87-3.68,1.74a6.1,6.1,0,0,0-1.58,3.41,39.83,39.83,0,0,0-1.3,9.89c.15,5.61,2.39,12.62,8,15,1.75.76,3.28-1.82,1.51-2.59Z"/><path class="cls-2" d="M87.22,98a1.5,1.5,0,0,0,0-3,1.5,1.5,0,0,0,0,3Z"/><path class="cls-2" d="M219.26,88.51l.17.09-.69-.9a4.39,4.39,0,0,1-.21,1.88c-.14.74-.32,1.48-.51,2.21-.38,1.46-.78,2.91-1.18,4.37l2.95.39c.32-2.73.66-5.46,1-8.2a32.64,32.64,0,0,0-.13-7.84c-.34-2.65-.78-5.28-1.34-7.88a13.08,13.08,0,0,1-.37-2.06,9.92,9.92,0,0,0-.06-1.54,2.72,2.72,0,0,0-.8-1.39c-.21-.21-1-.89-1-.55-.12-1.92-3.12-1.93-3,0a2.71,2.71,0,0,0,.38,1.39c.32.5.84.71,1.23,1.11s.36,2.11.53,2.93c.56,2.74,1.11,5.46,1.46,8.23.65,5.32-.25,10.52-.87,15.8-.2,1.71,2.51,2,2.94.4.56-2,1.17-4.06,1.6-6.13.31-1.44,1.13-4-.55-4.9s-3.23,1.69-1.52,2.59Z"/><path class="cls-2" d="M217.07,98.27a1.5,1.5,0,0,0,0-3,1.5,1.5,0,0,0,0,3Z"/><path class="cls-2" d="M215.77,99.22a1.5,1.5,0,0,0,0-3,1.5,1.5,0,0,0,0,3Z"/><path class="cls-2" d="M215.47,100a1.5,1.5,0,0,0,0-3,1.5,1.5,0,0,0,0,3Z"/><path class="cls-2" d="M217.68,70.47c-.35-.26-.37-.18-.07.26.14.29.27.58.4.88.23.55.44,1.12.62,1.69a25.46,25.46,0,0,1,.79,3.06,36,36,0,0,1,.48,6.88,15.85,15.85,0,0,1-.91,6.19,16.06,16.06,0,0,0-1.69,5.69c-.08,1.94,2.92,1.93,3,0,.08-2.28,1.5-4.25,2.12-6.41.7-2.4.52-5.13.46-7.6a31.77,31.77,0,0,0-1-7.52A27.23,27.23,0,0,0,220.58,70c-.46-1.06-.89-2.16-2.11-2.46-1.87-.46-2.67,2.44-.79,2.89Z"/><path class="cls-2" d="M221,95.54a18.18,18.18,0,0,0,2-5.66,21.85,21.85,0,0,0,.78-6.38,52.2,52.2,0,0,0-.89-6.49,9.76,9.76,0,0,0-.83-3,7.12,7.12,0,0,0-1.79-2c-1.48-1.22-3.61.89-2.12,2.12a4,4,0,0,1,1.44,1.67,16.81,16.81,0,0,1,.55,2.72,37.79,37.79,0,0,1,.65,5.3,19.63,19.63,0,0,1-.68,5.17,15.86,15.86,0,0,1-1.69,5c-1.06,1.62,1.54,3.13,2.59,1.51Z"/><path class="cls-2" d="M218.14,70.36a21,21,0,0,1,3.28,6.38,21.53,21.53,0,0,1,.73,7.49,24.38,24.38,0,0,1-1.62,6.88,11.25,11.25,0,0,1-1.61,3.21c-.68.78-1.91,1-2.72,1.64-1.48,1.23.65,3.35,2.12,2.12a11.13,11.13,0,0,1,1.71-.8,4.69,4.69,0,0,0,1.26-1.13,14.15,14.15,0,0,0,1.8-3.42,28.06,28.06,0,0,0,2-8.06,24,24,0,0,0-.67-8.27,23.53,23.53,0,0,0-3.71-7.55c-1.09-1.58-3.69-.08-2.59,1.51Z"/><path class="cls-2" d="M222.36,83.32A21.51,21.51,0,0,1,221,91.05a8.11,8.11,0,0,1-4.17,4.74,1.51,1.51,0,0,0-.54,2,1.53,1.53,0,0,0,2.05.54c5.48-2.42,7-9.67,7-15.06a1.5,1.5,0,0,0-3,0Z"/><path class="cls-2" d="M216,99.22a1.5,1.5,0,0,0,0-3,1.5,1.5,0,0,0,0,3Z"/><path class="cls-2" d="M216,99.17h.1a1.06,1.06,0,0,0,.58-.13,1.14,1.14,0,0,0,.48-.31,1,1,0,0,0,.31-.48,1.15,1.15,0,0,0,.13-.58l-.06-.4a1.47,1.47,0,0,0-.38-.66l-.3-.23a1.48,1.48,0,0,0-.76-.21H216a1.27,1.27,0,0,0-.58.13,1.11,1.11,0,0,0-.48.31,1.14,1.14,0,0,0-.31.48,1.08,1.08,0,0,0-.13.58l0,.4a1.39,1.39,0,0,0,.39.66l.3.24a1.57,1.57,0,0,0,.76.2Z"/><path class="cls-2" d="M218.88,70.92c.16,1,1,1.72,1.36,2.65s.89,2,1.26,3a11.46,11.46,0,0,1,.75,3.21c.07,1.22.07,2.44.1,3.66,0,1.64,2.57,2.11,3,.4.71-3.21-.35-6.38-1.44-9.38a14.1,14.1,0,0,0-1.94-3.83c-.75-1-1.94-1.7-2.47-2.84l-2.06,2a5.83,5.83,0,0,1,.86.86c.4.37.87.6,1.28.93a4.28,4.28,0,0,1,1.22,1.79,27.63,27.63,0,0,1,1.34,6.3,1.52,1.52,0,0,0,1.85,1A1.54,1.54,0,0,0,225,79a25.86,25.86,0,0,0-1.66-7.06,6.5,6.5,0,0,0-1.95-2.57,11.1,11.1,0,0,1-1.15-.86,6.4,6.4,0,0,0-1.31-1.18c-1.38-.82-2.66.77-2,2a11.28,11.28,0,0,0,2.36,2.75,8.75,8.75,0,0,1,1.66,3c.93,2.47,2.12,5.34,1.53,8l2.94.4a23.74,23.74,0,0,0-.86-7.41c-.41-1.15-.91-2.27-1.39-3.39a8.36,8.36,0,0,0-.73-1.54c-.28-.42-.52-.53-.6-1a1.51,1.51,0,0,0-1.84-1.05,1.55,1.55,0,0,0-1.05,1.85Z"/><g class="cls-12"><path class="cls-8" d="M223.4,72.65c-1.7-3.42-4.22-5.59-7-5.61-5.17,0-9.39,7.17-9.43,16.1s4.12,16.19,9.29,16.23,9.4-7.17,9.43-16.09a23.94,23.94,0,0,0-2.25-10.63"/></g><g class="cls-13"><path class="cls-8" d="M74.88,71.65c1.7-3.42,4.22-5.59,7-5.61,5.17,0,9.39,7.17,9.43,16.1s-4.13,16.19-9.3,16.23-9.39-7.17-9.43-16.09a24.08,24.08,0,0,1,2.26-10.63"/></g></g></g></svg>