<svg xmlns="http://www.w3.org/2000/svg" viewBox="0 0 131 185"><defs><style>.cls-1{fill:#ff452e;}.cls-2{fill:#f0f;}.cls-3{fill:#ccc;}.cls-4{fill:#2d0073;}</style></defs><g id="Layer_2" data-name="Layer 2"><g id="Layer_1-2" data-name="Layer 1"><rect class="cls-1" x="0.5" y="53.5" width="130" height="131" rx="27.5"/><path class="cls-2" d="M103,54a27,27,0,0,1,27,27v76a27,27,0,0,1-27,27H28A27,27,0,0,1,1,157V81A27,27,0,0,1,28,54h75m0-1H28A28,28,0,0,0,0,81v76a28,28,0,0,0,28,28h75a28,28,0,0,0,28-28V81a28,28,0,0,0-28-28Z"/><path class="cls-3" d="M47.87,0l-.21.2L47.43,0Z"/><path class="cls-3" d="M47.87,0l-.21.2L47.43,0Z"/><path class="cls-3" d="M47.87,0l-.21.2L47.43,0Z"/><path class="cls-3" d="M47.87,0l-.21.2L47.43,0Z"/><path class="cls-3" d="M47.87,0l-.21.2L47.43,0Z"/><path class="cls-3" d="M103,142.83l6.11-13.63-8.45-3a31.16,31.16,0,0,0,.75-14.9l8.55-3.56-5.89-13.22-8.7,3.63a31.87,31.87,0,0,0-8.27-7.36l3.8-8.47-14.43-5-3.8,8.46a37.84,37.84,0,0,0-12.7.56L56.2,77.77,41.68,83.83l3.9,8.78A36.78,36.78,0,0,0,35.4,103.36l-8.44-3L20.85,114l9.69,3.4a30.63,30.63,0,0,0,.16,7.78l-9.3,3.88,5.88,13.22,8.87-3.7a32,32,0,0,0,9.09,8.46l-3.53,7.87L56.15,160l3.52-7.87a37.86,37.86,0,0,0,12.21-.46l3.31,7.43L89.72,153l-3.32-7.46a37.53,37.53,0,0,0,6.95-6.13ZM61.38,128.08l-.12-.26a2.39,2.39,0,0,0,.37.15ZM75.91,122l.19-.08c0,.09-.07.18-.11.27Z"/><ellipse class="cls-4" cx="65.31" cy="118.65" rx="10.63" ry="10.04"/></g></g></svg>