<svg xmlns="http://www.w3.org/2000/svg" xmlns:xlink="http://www.w3.org/1999/xlink" viewBox="0 0 254.65 365"><defs><style>.cls-1{fill:url(#linear-gradient);}.cls-2{fill:#f4ff08;}.cls-3{font-size:48px;font-family:ArialMT, Arial;}</style><linearGradient id="linear-gradient" x1="125.31" y1="4.51" x2="129.37" y2="362.91" gradientUnits="userSpaceOnUse"><stop offset="0" stop-color="#cce0f4"/><stop offset="0.06" stop-color="#c3dcf2"/><stop offset="0.16" stop-color="#a9d2ee"/><stop offset="0.29" stop-color="#80c2e7"/><stop offset="0.45" stop-color="#47acde"/><stop offset="0.55" stop-color="#1e9cd7"/><stop offset="0.88" stop-color="#0075be"/><stop offset="1" stop-color="#005b97"/></linearGradient></defs><g id="Layer_2" data-name="Layer 2"><g id="Layer_1-2" data-name="Layer 1"><rect class="cls-1" x="0.5" y="0.5" width="253.65" height="364" rx="23.5"/><path d="M230.65,1a23,23,0,0,1,23,23V341a23,23,0,0,1-23,23H24A23,23,0,0,1,1,341V24A23,23,0,0,1,24,1H230.65m0-1H24A24,24,0,0,0,0,24V341a24,24,0,0,0,24,24H230.65a24,24,0,0,0,24-24V24a24,24,0,0,0-24-24Z"/><rect x="31.33" y="341.71" width="192" height="6"/><path d="M222.83,342.21v5h-191v-5h191m1-1h-193v7h193v-7Z"/><rect x="24.5" y="89.5" width="6" height="187"/><path d="M30,90V276H25V90h5m1-1H24V277h7V89Z"/><rect x="224.5" y="89.5" width="6" height="187"/><path d="M230,90V276h-5V90h5m1-1h-7V277h7V89Z"/><circle cx="227.5" cy="302.25" r="7"/><path d="M227.5,295.75a6.5,6.5,0,1,1-6.5,6.5,6.51,6.51,0,0,1,6.5-6.5m0-1a7.5,7.5,0,1,0,7.5,7.5,7.5,7.5,0,0,0-7.5-7.5Z"/><circle cx="227.5" cy="58.33" r="7"/><path d="M227.5,51.83a6.5,6.5,0,1,1-6.5,6.5,6.51,6.51,0,0,1,6.5-6.5m0-1a7.5,7.5,0,1,0,7.5,7.5,7.5,7.5,0,0,0-7.5-7.5Z"/><circle cx="27.41" cy="302.25" r="7"/><path d="M27.41,295.75a6.5,6.5,0,1,1-6.5,6.5,6.51,6.51,0,0,1,6.5-6.5m0-1a7.5,7.5,0,1,0,7.5,7.5,7.5,7.5,0,0,0-7.5-7.5Z"/><path class="cls-2" d="M65.3,81.79l-.38.08.1-.35Z"/><path class="cls-2" d="M72.28,79.16l-.49.26,0-.47Z"/><polygon class="cls-2" points="78.13 57.37 78.11 57.38 78.12 57.37 78.13 57.37"/><polygon class="cls-2" points="78.13 57.37 78.11 57.38 78.12 57.37 78.13 57.37"/><path class="cls-2" d="M35.19,68.27l-.17,0,.09-.13Z"/><path class="cls-2" d="M42.19,41.2l-.14.11,0-.16Z"/><path class="cls-2" d="M35.19,68.27l-.17,0,.09-.13Z"/><path class="cls-2" d="M42.19,41.2l-.14.11,0-.16Z"/><polygon class="cls-2" points="78.13 57.37 78.11 57.38 78.12 57.37 78.13 57.37"/><polygon class="cls-2" points="78.13 57.37 78.11 57.38 78.12 57.37 78.13 57.37"/><rect x="31.5" y="15.81" width="191.71" height="6"/><path d="M222.71,16.31v5H32v-5H222.71m1-1H31v7H223.71v-7Z"/><circle cx="27.5" cy="58.33" r="7"/><path d="M27.5,51.83a6.5,6.5,0,1,1-6.5,6.5,6.51,6.51,0,0,1,6.5-6.5m0-1a7.5,7.5,0,1,0,7.5,7.5,7.5,7.5,0,0,0-7.5-7.5Z"/><text class="cls-3" transform="translate(49.53 67.85)">Scores</text><rect x="57.04" y="70.85" width="137.09" height="1.98"/><path d="M193.63,71.35v1H57.54v-1H193.63m1-1H56.54v3H194.63v-3Z"/></g></g></svg>