<svg xmlns="http://www.w3.org/2000/svg" viewBox="0 0 289 429.89"><defs><style>.cls-1,.cls-6{fill:#ed1c24;}.cls-1,.cls-2,.cls-3,.cls-4,.cls-5{stroke:#231f20;stroke-miterlimit:10;}.cls-2{fill:none;}.cls-3{fill:#231f20;}.cls-4{fill:#808285;}.cls-5{fill:#fff200;}</style></defs><title>Asset 1</title><g id="Layer_2" data-name="Layer 2"><g id="Layer_1-2" data-name="Layer 1"><rect class="cls-1" x="198.5" y="159.5" width="90" height="181.44"/><line class="cls-1" x1="198.5" y1="88.5" x2="288.5" y2="159.5"/><line class="cls-2" x1="288.5" y1="340.94" x2="198.5" y2="397.5"/><circle class="cls-3" cx="34.25" cy="159.5" r="33.75"/><circle class="cls-4" cx="34.25" cy="159.5" r="14.5"/><polygon class="cls-2" points="43.45 172.06 34.75 167.94 26.43 172.78 27.65 163.23 20.48 156.81 29.93 155.02 33.82 146.22 38.45 154.66 48.02 155.64 41.42 162.65 43.45 172.06"/><circle class="cls-3" cx="34.75" cy="338.5" r="33.75"/><circle class="cls-4" cx="34.75" cy="338.5" r="14.5"/><polygon class="cls-2" points="43.95 351.06 35.25 346.94 26.93 351.78 28.15 342.23 20.98 335.81 30.43 334.02 34.32 325.22 38.95 333.66 48.52 334.64 41.92 341.65 43.95 351.06"/><rect class="cls-5" x="53.5" y="0.5" width="28" height="15"/><rect class="cls-5" x="53.5" y="414.39" width="28" height="15"/><polygon class="cls-6" points="187.39 89.03 102.18 96.77 143.64 15.5 187.39 89.03"/><rect class="cls-1" x="53.5" y="88.5" width="145" height="325.89"/><rect class="cls-1" x="53.5" y="15.5" width="90" height="73"/><line class="cls-2" x1="143.5" y1="15.5" x2="187.39" y2="89.03"/></g></g></svg>