<svg xmlns="http://www.w3.org/2000/svg" viewBox="0 0 237 401"><defs><style>.cls-1{fill:#898888;}.cls-2{fill:#0eff00;}.cls-3{fill:#006700;}</style></defs><title>Asset 1</title><g id="Layer_2" data-name="Layer 2"><g id="Layer_1-2" data-name="Layer 1"><rect class="cls-1" x="0.5" y="0.5" width="236" height="400"/><path d="M236,1V400H1V1H236m1-1H0V401H237V0Z"/><path class="cls-2" d="M36.5,400.5v-96l1.4,0,2.13,0h.64c1.49.81,1.48,3.29,1.48,5.3,0,.51,0,1,0,1.39l1,0c.08-5.68,3-6.79,7.94-6.79.92,0,1.87,0,2.83.07s1.71.07,2.56.08v96Z"/><path class="cls-3" d="M51.11,304.85c.9,0,1.83,0,2.81.07L56,305v95H37V305l.91,0L40,305h.5c1.14.73,1.13,3.07,1.12,4.79,0,.52,0,1,0,1.43l2,0c.07-5.3,2.67-6.3,7.44-6.3m0-1c-4.64,0-8.35.92-8.44,7.28-.13-2.05.42-6-1.83-7.13a4.09,4.09,0,0,0-.82,0c-1.07,0-2.91.06-3.67.06a1.43,1.43,0,0,1-.35,0v97H57V304c-2,0-4-.15-5.89-.15Z"/><rect class="cls-2" x="150.4" y="216.03" width="20" height="96.49" transform="translate(-94.5 89.35) rotate(-24.28)"/><path class="cls-3" d="M149.42,216.85l39.27,87-17.31,7.81-39.28-87,17.32-7.81m.5-1.33-19.14,8.64L170.87,313,190,304.39l-40.1-88.87Z"/><rect class="cls-2" x="169.5" y="304.5" width="20" height="96"/><path class="cls-3" d="M189,305v95H170V305h19m1-1H169v97h21V304Z"/><rect class="cls-2" x="36.5" y="0.5" width="20" height="96"/><path class="cls-3" d="M56,1V96H37V1H56m1-1H36V97H57V0Z"/><rect class="cls-2" x="169.5" y="0.5" width="20" height="96"/><path class="cls-3" d="M189,1V96H170V1h19m1-1H169V97h21V0Z"/><rect class="cls-2" x="17.44" y="253.93" width="96" height="20" transform="translate(-202.04 215.04) rotate(-65.72)"/><path class="cls-3" d="M76.32,216.72l17.32,7.82L54.57,311.13l-17.32-7.81,39.07-86.6m-.5-1.32L35.93,303.82l19.14,8.63L95,224,75.82,215.4Z"/><rect class="cls-2" x="112.44" y="126.93" width="96" height="20" transform="translate(-30.35 226.86) rotate(-65.72)"/><path class="cls-3" d="M171.32,89.72l17.32,7.82-39.07,86.59-17.32-7.81,39.07-86.6m-.5-1.32-39.89,88.42,19.14,8.63L190,97,170.82,88.4Z"/><rect class="cls-2" x="55.44" y="88.93" width="20" height="96" transform="translate(-50.52 39.03) rotate(-24.28)"/><path class="cls-3" d="M54.57,89.72l39.07,86.6-17.32,7.81L37.25,97.54l17.32-7.82m.5-1.32L35.93,97l39.89,88.41L95,176.82,55.07,88.4Z"/><polygon class="cls-2" points="47.09 200.5 112.5 166.56 177.91 200.5 112.5 234.44 47.09 200.5"/><path class="cls-3" d="M112.5,167.13l64.33,33.37L112.5,233.87,48.17,200.5l64.33-33.37m0-1.13L46,200.5,112.5,235,179,200.5,112.5,166Z"/><path class="cls-2" d="M52.47,86.32a1.92,1.92,0,0,1-.67,2.38,9.74,9.74,0,0,1-3.55,1.55l-9.72,3.06c-1.83.57-1.05,3.47.8,2.89C43.11,95,47,94,50.7,92.6a7.86,7.86,0,0,0,4.17-2.9,4.62,4.62,0,0,0,.19-4.89c-1-1.64-3.61-.14-2.59,1.51Z"/><path class="cls-2" d="M47.15,88.53l1.07,4.27a1.5,1.5,0,1,0,2.89-.8L50,87.74a1.5,1.5,0,0,0-1.84-1,1.53,1.53,0,0,0-1.05,1.84Z"/><path class="cls-2" d="M49.18,88.18a5.27,5.27,0,0,0-1.47,3,12.15,12.15,0,0,1-.33,1.45c0,.09,0,.09,0,0l-.07.14-.17.27c.11-.15-.1.09-.13.11s-.27.23-.11.11a1,1,0,0,1-.25.15l.1,0q-.24.06-.06,0c.09,0,.09,0,0,0s-.09,0,0,0a2.06,2.06,0,0,1,.26.12c.09,0,0,0,0-.08,0,.17,0-.15,0-.18-.06-.24-.11-.49-.17-.74-.39-1.4-1.75-2.74-3.31-2.2a1.51,1.51,0,0,0-1,1l-.56,3-.28,1.52-.12.65a2.8,2.8,0,0,0-.15.62c0,.25-.1-.08.09,0-.14.08-.17.09-.09,0a.29.29,0,0,1,.16,0c-.19,0-.2,0,0,0a1.47,1.47,0,0,1-.3-.08c.22.09-.2-.15,0,0-.53-.39-.65-1.22-.81-1.91a1.5,1.5,0,0,0-2.9.8A6.05,6.05,0,0,0,39,99.28a3.34,3.34,0,0,0,3.79.51c1.28-.74,1.45-2.21,1.7-3.53l.77-4.11-1,1c-.11,0-.37-.15-.45-.1a.08.08,0,0,1,0,0l.09.15c0-.16,0,.15,0,.19s.07.28.1.41a3.69,3.69,0,0,0,.87,1.77,2.83,2.83,0,0,0,3.63.27,4.74,4.74,0,0,0,2-3c.12-.54.2-1.09.35-1.62,0-.1.06-.21.09-.31.13-.43-.06.07.06-.15a1.57,1.57,0,0,1,.19-.33c-.14.18.18-.16.19-.16a1.5,1.5,0,0,0-2.12-2.13Z"/><path class="cls-2" d="M52.48,87.63s.28.33.13.13a2.12,2.12,0,0,1,.21.36c-.12-.26,0,.13,0,.16s.07.46,0,.16a3.09,3.09,0,0,1,0,.43s-.06.46,0,.18a4.34,4.34,0,0,1-.25.85c.1-.23-.08.14-.1.17a2.92,2.92,0,0,1-.24.37c.15-.19-.1.12-.13.15s-.2.2-.31.29a3.92,3.92,0,0,1-.66.46,6.79,6.79,0,0,1-.72.36,19.55,19.55,0,0,1-4.07.94A14.81,14.81,0,0,0,41.93,94a1.5,1.5,0,1,0,1.51,2.59,16.2,16.2,0,0,1,4.73-1.2,12.81,12.81,0,0,0,4.71-1.54,6.14,6.14,0,0,0,2.87-3.78,4.77,4.77,0,0,0-1.15-4.55,1.5,1.5,0,0,0-2.12,2.12Z"/><path class="cls-2" d="M42.72,90.62A4.38,4.38,0,0,0,39,92.69a4.7,4.7,0,0,0-.71,2,4.07,4.07,0,0,0,.4,2.17,1.5,1.5,0,0,0,2.05.54,1.48,1.48,0,0,0,.69-.9,1.67,1.67,0,0,0-.15-1.16l0-.09.15.36a2.91,2.91,0,0,1-.15-.58l0,.4a3.05,3.05,0,0,1,0-.74l0,.4a2.88,2.88,0,0,1,.22-.76l-.15.35a3.59,3.59,0,0,1,.43-.73l-.23.3a3.35,3.35,0,0,1,.57-.56l-.3.23a2.7,2.7,0,0,1,.59-.35l-.36.15a2.66,2.66,0,0,1,.67-.18l-.4,0a2.68,2.68,0,0,1,.4,0,1.5,1.5,0,0,0,1.5-1.5,1.54,1.54,0,0,0-1.5-1.5Z"/><path class="cls-2" d="M178,84.39l-.91,8.55a1.5,1.5,0,0,0,1.5,1.5,1.54,1.54,0,0,0,1.5-1.5l.91-8.55a1.51,1.51,0,0,0-1.5-1.5,1.55,1.55,0,0,0-1.5,1.5Z"/><path class="cls-2" d="M174,86a27.27,27.27,0,0,1-2.37,11.29,1.54,1.54,0,0,0,.54,2,1.51,1.51,0,0,0,2-.54A30.88,30.88,0,0,0,177,86a1.5,1.5,0,0,0-3,0Z"/><path class="cls-2" d="M171.1,89.2v1.87a1.56,1.56,0,0,0,.44,1.06,1.24,1.24,0,0,0,.48.31,1.27,1.27,0,0,0,.58.13,1.54,1.54,0,0,0,1.06-.44,1.58,1.58,0,0,0,.44-1.06V89.2a1.56,1.56,0,0,0-.44-1.06,1.14,1.14,0,0,0-.48-.31,1.15,1.15,0,0,0-.58-.13,1.5,1.5,0,0,0-1.06.44,1.54,1.54,0,0,0-.44,1.06Z"/><path class="cls-2" d="M172.07,90.7a1.5,1.5,0,0,0,0-3,1.5,1.5,0,0,0,0,3Z"/><path class="cls-2" d="M172.07,91.23a1.5,1.5,0,0,0,0-3,1.5,1.5,0,0,0,0,3Z"/><path class="cls-2" d="M172.07,92.3a1.5,1.5,0,0,0,0-3,1.5,1.5,0,0,0,0,3Z"/><path class="cls-2" d="M171.53,91.23a1.5,1.5,0,0,0,0-3,1.5,1.5,0,0,0,0,3Z"/><path class="cls-2" d="M172.07,93.1a1.5,1.5,0,0,0,0-3,1.5,1.5,0,0,0,0,3Z"/><path class="cls-2" d="M171.8,92.57a1.5,1.5,0,0,0,0-3,1.5,1.5,0,0,0,0,3Z"/><path class="cls-2" d="M187,94.38c-1.95.21-3.87-.75-5.66-1.4-1-.35-1.94-.69-2.91-1l-.27-.1q.18.08-.06,0l-.4-.22c-.15-.1-.17-.11-.06,0a1.89,1.89,0,0,1-.2-.2q.13.19,0,0a.37.37,0,0,1,.05.23,1.55,1.55,0,0,0-1.5-1.5,1.51,1.51,0,0,0-1.5,1.5,3.43,3.43,0,0,0,1.89,2.72,23.57,23.57,0,0,0,3.36,1.3c2.28.83,4.77,2.06,7.26,1.8a1.54,1.54,0,0,0,1.5-1.5,1.51,1.51,0,0,0-1.5-1.5Z"/><path class="cls-2" d="M187,98.17a1.5,1.5,0,0,0,0-3,1.5,1.5,0,0,0,0,3Z"/><path class="cls-2" d="M54.47,93.37a1.5,1.5,0,0,0,0-3,1.5,1.5,0,0,0,0,3Z"/><path class="cls-2" d="M172.65,300.13a102.41,102.41,0,0,0,1.81,18.33,1.5,1.5,0,0,0,1.65,1.08,1.53,1.53,0,0,0,1.3-1.48,69.85,69.85,0,0,0,.38-12l-2.79.76a5,5,0,0,1,1,2.66,1.5,1.5,0,0,0,3,0,49.27,49.27,0,0,0,.14-6.43c-.09-1.92-3-1.94-3,0l.08,5.53,3-.4a84.4,84.4,0,0,1-3.07-11c-.36-1.71-2.89-1.24-3,.39a25,25,0,0,0,.66,6.63c.38,1.61,3.13,1.31,3-.39a4.52,4.52,0,0,1,.23-2.06l-2.51.66c.67.73.49,2.08.57,3a5.77,5.77,0,0,0,1.32,3.52,1.51,1.51,0,0,0,2.56-1.06,9.7,9.7,0,0,1,.67-3h-2.89l.91,2.9c.35,1.14,2.15,1.59,2.74.36a21.24,21.24,0,0,0,1.36-3.61h-2.9l.55,1.91a1.51,1.51,0,0,0,2.89,0l.65-1.78-1.85,1.05a.9.9,0,0,1,.86.54,1.51,1.51,0,0,0,2.59,0,7.19,7.19,0,0,1,1.73-2.51h-2.12a1.64,1.64,0,0,1,.42,1.21,1.51,1.51,0,0,0,2.25,1.3l.72-.4c1.69-.94.18-3.53-1.51-2.59l-.72.4,2.26,1.29a4.72,4.72,0,0,0-1.3-3.34,1.53,1.53,0,0,0-2.12,0,9.47,9.47,0,0,0-2.2,3.12h2.59a3.7,3.7,0,0,0-2.65-1.92,1.55,1.55,0,0,0-1.84,1l-.65,1.78h2.89l-.54-1.91a1.52,1.52,0,0,0-2.9,0,17.62,17.62,0,0,1-1.05,2.9l2.74.36-.91-2.9a1.51,1.51,0,0,0-2.89,0,12,12,0,0,0-.78,3.84l2.56-1.06c-.64-.74-.46-2.11-.54-3a5.63,5.63,0,0,0-1.34-3.5,1.52,1.52,0,0,0-2.51.66,6.62,6.62,0,0,0-.34,2.86l2.95-.4a21.65,21.65,0,0,1-.56-5.84l-2.95.4a84.15,84.15,0,0,0,3.08,11c.54,1.53,3,1.37,2.94-.4l-.08-5.53h-3a49.27,49.27,0,0,1-.14,6.43h3a7.85,7.85,0,0,0-1.42-4.18c-.8-1.1-2.88-.86-2.8.76a69.85,69.85,0,0,1-.38,12l3-.39a98.35,98.35,0,0,1-1.71-17.54,1.5,1.5,0,0,0-3,0Z"/><path class="cls-2" d="M40.75,304.48c.6,2.82,1.12,5.67,1.56,8.52.26,1.66,3.14,1.29,2.95-.39a39.16,39.16,0,0,1-.18-6.93,1.47,1.47,0,0,0-1.3-1.47,1.51,1.51,0,0,0-1.64,1.07l-1.89,5.52,3,.4a15.68,15.68,0,0,1,.1-3.81l-1.84,1.05.12.05-.67-.39.05-1.36,2.36.31a2.78,2.78,0,0,1,0-1.95H40.43c.44,1.77.8,3.55,1.07,5.36a1.52,1.52,0,0,0,2.75.36c1.07-2.14,2-4.31,3-6.52H44.32a19.92,19.92,0,0,1,1,4.58,1.51,1.51,0,0,0,1.3,1.47,1.48,1.48,0,0,0,1.65-1.08,42.73,42.73,0,0,1,1-4.71h-2.9a14.55,14.55,0,0,1,.21,4.56h3a.68.68,0,0,1,.24-.55l-2.21-.9a11.74,11.74,0,0,1,.36,4.09,1.51,1.51,0,0,0,2.79.75l.69-1.41-2.74-.36c.38,1.15.82,2.27,1.3,3.38s2.42.78,2.74-.36a2.14,2.14,0,0,1,.12-.36c0,.08,0,.13-.2.15-.35.33-.75.24-1.19-.28a1.51,1.51,0,0,0,2.59,0,4.54,4.54,0,0,0,.59-2.52l-1.1,1.44.8-.28-1.9-1.44,0,2.2c0,1.93,3,1.93,3,0l0-2.2a1.51,1.51,0,0,0-1.9-1.45l-.8.28a1.53,1.53,0,0,0-1.1,1.45,1.63,1.63,0,0,1-.18,1H54a2.09,2.09,0,0,0-2.46-.94A2.82,2.82,0,0,0,49.81,313l2.74-.36c-.38-.87-.7-1.76-1-2.66-.37-1.13-2.14-1.59-2.74-.36L48.12,311l2.8.76a14.08,14.08,0,0,0-.46-4.88,1.52,1.52,0,0,0-2.21-.9,3.88,3.88,0,0,0-1.72,3.14,1.5,1.5,0,0,0,3,0,17.46,17.46,0,0,0-.31-5.35,1.51,1.51,0,0,0-2.9,0,44.12,44.12,0,0,0-1,4.71l2.94.4a22.78,22.78,0,0,0-1.1-5.37,1.51,1.51,0,0,0-2.89,0c-.81,2-1.71,3.89-2.66,5.79l2.74.36a54.67,54.67,0,0,0-1.08-5.36,1.51,1.51,0,0,0-2.89,0,6,6,0,0,0,.29,4.26,1.51,1.51,0,0,0,2.36.3,2,2,0,0,0-.82-3.31,1.51,1.51,0,0,0-1.85,1.05,18.19,18.19,0,0,0-.21,4.6,1.5,1.5,0,0,0,2.94.4L45,306.08l-3-.4a39.16,39.16,0,0,0,.18,6.93l2.94-.4q-.66-4.29-1.55-8.53a1.51,1.51,0,0,0-1.85-1.05,1.53,1.53,0,0,0-1,1.85Z"/><path class="cls-2" d="M42.86,304.22l-.15.25c-.13.23.08-.13.11-.12s-.08.08-.08.09l-.11.1c-.1.1-.23.11.13-.1l-.23.15c-.14.07-.42.14,0,0l-.27.1a4.26,4.26,0,0,1-.62.13l.4-.05a8.84,8.84,0,0,1-2.24,0l.4,0-.36-.07c-.26-.07,0,.06.09.06s-.28-.19,0,0-.07-.12.13.13.1.14,0,.06l0-.06s.12.38.08.19,0-.11,0-.18l.05.4a1.51,1.51,0,0,1,0-.3l-.06.39c0-.06,0-.11.05-.18s-.15.32-.07.17.18-.18-.11.13c.16-.17-.33.22-.12.08A1.5,1.5,0,1,0,38.36,303a2.59,2.59,0,0,0-.85,3.46c.69,1.13,2,1.28,3.19,1.34,1.76.09,3.89-.31,4.75-2.06a1.62,1.62,0,0,0,.15-1.16,1.59,1.59,0,0,0-.69-.9,1.53,1.53,0,0,0-2,.54Z"/><path class="cls-2" d="M52.11,306.58a9.75,9.75,0,0,0-1.53,6.35A1.66,1.66,0,0,0,51,314a1.52,1.52,0,0,0,1.06.44c.74,0,1.6-.66,1.5-1.5a9.58,9.58,0,0,1,0-1.42l0-.37c0-.07,0-.13,0-.19,0,.24,0,.28,0,.12s.07-.44.12-.65.11-.43.18-.64.08-.24.13-.36l.06-.18c.07-.15,0-.11,0,.1,0,0,.09-.2.12-.26s.11-.22.17-.34.25-.43.39-.65a1.51,1.51,0,0,0-.54-2,1.54,1.54,0,0,0-2,.54Z"/><path class="cls-2" d="M52.2,306.67l1.07,2.93a1.64,1.64,0,0,0,.69.9,1.52,1.52,0,0,0,1.16.15,1.5,1.5,0,0,0,1.05-1.84l-1.08-2.93a1.59,1.59,0,0,0-.69-.9,1.5,1.5,0,0,0-2,.54,1.46,1.46,0,0,0-.15,1.15Z"/><path class="cls-2" d="M169.06,301.88a3.28,3.28,0,0,0,.19,3.68,3.37,3.37,0,0,0,1.66,1.13,4.46,4.46,0,0,0,.82.2c-1-.13.29,0,.21.08s-.1-.76-.17-.22l.2-.76-.07.16,2.36-.3c.31.78.23,1.24-.25,1.4-.13,0-.12.05,0,0a1.5,1.5,0,0,0,.37,0l1.44.2c.91.11,1.82.19,2.74.26,1.79.12,3.59.17,5.38.22l-.75-2.8a14.9,14.9,0,0,1-6.65.91c-1.17-.06-2.35-.18-3.52-.32-.45-.05-.85-.15-1.29-.2-.18,0-.23,0-.18-.07s0,0,0,.06a.2.2,0,0,1,0,.13.77.77,0,0,1-.36.49l-2.21-.89a57.3,57.3,0,0,0,3,10.49,1.54,1.54,0,0,0,1.85,1,1.49,1.49,0,0,0,1-1.84,57.08,57.08,0,0,1-3-10.49,1.5,1.5,0,0,0-2.2-.9,2.48,2.48,0,0,0-1.11,2.18,2.82,2.82,0,0,0,1.28,2.22,5.07,5.07,0,0,0,2.24.67c.83.11,1.66.2,2.49.28a20,20,0,0,0,10.1-1.17,1.5,1.5,0,0,0,.69-1.69A1.54,1.54,0,0,0,184,305c-2.58-.07-5.17-.14-7.73-.44-1.17-.13-2.53-.6-3.63.05a2.13,2.13,0,0,0-.46,3.34,1.52,1.52,0,0,0,2.36-.3,2.62,2.62,0,0,0-1.76-3.61,6.17,6.17,0,0,0-.82-.21c-.25,0-.19,0-.32-.14,0,0,0-.17,0-.18,0,.16,0,0,.09-.14,1-1.65-1.58-3.16-2.59-1.51Z"/><path class="cls-2" d="M134.89,221.09c1.08,2,2.09,4.13,3.25,6.12,1,1.78,2.58,3.21,4.75,2.82a1.5,1.5,0,0,0,1.11-1.44q-.24-5.22-.66-10.43l-3,.4a20.89,20.89,0,0,1,.91,3.56,1.5,1.5,0,0,0,3,0,28.25,28.25,0,0,1,1.75-7.69h-2.89a68.56,68.56,0,0,1,1.58,8,1.48,1.48,0,0,0,1.64,1.07,1.5,1.5,0,0,0,1.3-1.47l.07-4.18-2.94.4a7.42,7.42,0,0,1,.11,2.74l1.9-1.45c-.36-.1-.44-.29-.51-.66a1.51,1.51,0,0,0-1.84-1,1.52,1.52,0,0,0-1.05,1.84,3.56,3.56,0,0,0,2.6,2.75,1.52,1.52,0,0,0,1.9-1.44,9.75,9.75,0,0,0-.22-3.53,1.51,1.51,0,0,0-2.95.39l-.07,4.18,2.95-.4a66.41,66.41,0,0,0-1.58-8,1.51,1.51,0,0,0-2.89,0,30.79,30.79,0,0,0-1.86,8.48h3a25.1,25.1,0,0,0-1-4.36c-.48-1.54-3.09-1.36-2.94.4q.42,5.21.66,10.43l1.1-1.45c-.18,0-.66-.42-.88-.69a11.86,11.86,0,0,1-1.08-1.86l-2.66-5c-.9-1.7-3.49-.19-2.59,1.52Z"/><path class="cls-2" d="M142.07,172.94a16.15,16.15,0,0,1-1.29,5.2l2.74,1.15a17.13,17.13,0,0,1,1.16-4l-2.8-.76c-.16,2.16-1.44,4.07-2.66,5.78-.7,1-1.41,2-2.12,2.94-.29.4-.57.82-.89,1.21a2.43,2.43,0,0,1-.41.44c-.22.15,0,.1-.29.09-1.93-.06-1.93,2.94,0,3,1.51.05,2.53-1,3.36-2.11s1.79-2.45,2.67-3.68c1.67-2.31,3.12-4.76,3.34-7.67.12-1.43-2.19-2.11-2.79-.75a20.17,20.17,0,0,0-1.46,4.74,1.53,1.53,0,0,0,.87,1.77,1.48,1.48,0,0,0,1.87-.62,20.23,20.23,0,0,0,1.7-6.71,1.5,1.5,0,0,0-3,0Z"/><path class="cls-2" d="M82.28,175.53a56.26,56.26,0,0,1,6.21,13.73,47.42,47.42,0,0,1,1.6,7c.29,2.06.4,4.57-1,6.3-1.18,1.5.93,3.64,2.12,2.12,3.35-4.24,1.81-10.15.51-14.9A59.6,59.6,0,0,0,84.87,174c-1-1.64-3.61-.13-2.59,1.52Z"/><path class="cls-2" d="M84,218a46.57,46.57,0,0,1-3.88,15.52,1.55,1.55,0,0,0,.54,2.05,1.5,1.5,0,0,0,2-.53A50.78,50.78,0,0,0,87,218a1.5,1.5,0,0,0-3,0Z"/><path class="cls-2" d="M85.34,178.89a3.41,3.41,0,0,1,.73,2.51,1.55,1.55,0,0,0,.54,1.58,1.5,1.5,0,0,0,1.67.12c1.34-.87,1.57-2.32,1.5-3.82,0-.19-.07-1.31.14-1.29s-.36.27-.33.2c-.07.15-.29-.32.1.11.21.24.43.45.63.7a1.51,1.51,0,0,0,2.36-.31l.58-1.26H90.67c.1.14.15.06,0,.25a.58.58,0,0,1-.22.22,3.15,3.15,0,0,1-1.54.43,17.89,17.89,0,0,0-2.3.31,16,16,0,0,0-2.41.84l-4.75,2c-1.49.61-3,1.17-3.52,2.84-.6,1.84,2.3,2.63,2.9.8.06-.19.72-.46,1-.59.89-.38,1.8-.74,2.7-1.11a25,25,0,0,1,5.24-1.93c1.45-.24,3-.16,4.25-1,1.43-1,2.25-3,1.18-4.52-.58-.83-2.08-1.11-2.59,0l-.58,1.26,2.35-.3a4.11,4.11,0,0,0-2.35-1.61,2.67,2.67,0,0,0-2.8,1.28,4.68,4.68,0,0,0-.53,2.55,7,7,0,0,1,0,1.12c0,.1,0,.17-.06.32s0,0,0,0L89,182.2a6.42,6.42,0,0,0-1-4.83,1.54,1.54,0,0,0-2.05-.53,1.5,1.5,0,0,0-.54,2Z"/><path class="cls-2" d="M81.45,211.61a17.31,17.31,0,0,1-.14,5.13c-.08.41-.17.82-.28,1.23a5.22,5.22,0,0,0-.29.94c0-.06.7-.21.67-.15a1.9,1.9,0,0,0-.07-.28,5.15,5.15,0,0,1,0-.68,1.5,1.5,0,0,0-2.25-1.3l-1.72,1.18L79.61,219a2.18,2.18,0,0,1,.41-1.18,1.51,1.51,0,0,0-.23-1.82,1.56,1.56,0,0,0-1.82-.24l-.65.32,2.21,1.69c0-.3,0-.29.21-.45l-2.35-.3c-.07-.39-.11-.45-.09-.18,0,.11,0,.22,0,.33a3.89,3.89,0,0,0,0,.59,2,2,0,0,0,1,1.63c1.17.66,2.93-.2,4.11-.52l-1.15-.15c-.28-.14-.13-.63-.2-.25,0,.07,0,.6,0,.48a4.31,4.31,0,0,0,.07,1.6,2.23,2.23,0,0,0,2.93,1.66c1.12-.44,1.59-1.82,2.24-2.75a15.76,15.76,0,0,1,1-1.31c.21-.24.42-.48.65-.72l.3-.3c.11,0,0,.06-.22.11l-.75-.2-.29-.4,0,.16a3.89,3.89,0,0,0,.12.65,9.3,9.3,0,0,1,.09,1.05,13.51,13.51,0,0,1-.11,2.38,1.49,1.49,0,0,0,1.1,1.45,1.58,1.58,0,0,0,1.69-.69,10.46,10.46,0,0,0,1.35-2.45c.63-1.57-2-2.7-2.74-1.16l-1.63,3.57a1.5,1.5,0,0,0,2.59,1.51,20.58,20.58,0,0,0,2.68-4.89c.61-1.58-2-2.67-2.75-1.16L88,219.68a7.77,7.77,0,0,0-1.16,2.91,2.21,2.21,0,0,0,1.68,2.23,2.85,2.85,0,0,0,1.42,0c.36-.1.72-.39,1.09-.4l-1.44-1.11c.12.38.11-.07,0,.29l2.95.4a4.15,4.15,0,0,1,.61-1.62L90.36,222a.87.87,0,0,1,0,.67,1.5,1.5,0,1,0,2.89.8,3.53,3.53,0,0,0,0-2.27,1.52,1.52,0,0,0-2.74-.36,7.7,7.7,0,0,0-1,3.13,1.48,1.48,0,0,0,1.3,1.47,1.53,1.53,0,0,0,1.65-1.07,2.7,2.7,0,0,0,0-1.88,1.53,1.53,0,0,0-1.45-1.1,3.76,3.76,0,0,0-1.47.34s-.42.18-.42.17h0a1.4,1.4,0,0,1,.47.24l.21.75c0-.27.12-.45.25-.72l.6-1.2,1.18-2.41-2.74-1.16a17.61,17.61,0,0,1-2.37,4.18l2.59,1.51L91,219.51l-2.74-1.15a7.84,7.84,0,0,1-1.05,1.73l2.8.76a14,14,0,0,0,0-3.3c-.12-1.07-.2-2.42-1.22-3.05-2.06-1.28-4,1.65-5,3-.29.39-.56.79-.81,1.19l-.37.62-.15.26a1,1,0,0,1,1.27,0c.16-.13-.08.5.06,0-.06.2,0-.27,0,0a6.13,6.13,0,0,0,.09-1.28A2.44,2.44,0,0,0,82.3,216a3.47,3.47,0,0,0-1.76.26,5.36,5.36,0,0,1-1.53.38l.76.21c.62.31.41,1.19.47.49,0-.16.05-.32.06-.48a2.78,2.78,0,0,0-.32-1.33,1.52,1.52,0,0,0-2.36-.31,3,3,0,0,0-1,1.77,1.53,1.53,0,0,0,2.21,1.7l.65-.32-2.06-2a5.28,5.28,0,0,0-.82,2.7,1.51,1.51,0,0,0,2.26,1.3l1.71-1.18-2.26-1.29c0,1.38.29,2.88,1.64,3.59a2.53,2.53,0,0,0,3.61-1.5,17.92,17.92,0,0,0,.88-8.28,1.55,1.55,0,0,0-1.5-1.5,1.5,1.5,0,0,0-1.5,1.5Z"/><path class="cls-2" d="M131.57,217.7a7.17,7.17,0,0,1,2,6.38l2.2-.9a2.11,2.11,0,0,1-1.26-2l-.44,1.06a1.6,1.6,0,0,1,2.74,1.31c-.25,1.57,1.87,2.77,2.74,1.16a13.26,13.26,0,0,0,1.65-6.6l-2.95.4.26,1.84c.19,1.32,2.16,1.39,2.75.36l3.26-5.76H141.9l3.13,5.33a1.47,1.47,0,0,0,1.29.75,3.17,3.17,0,0,0,2.87-2.42c.43-1.56-.22-2.9-.93-4.25-.89-1.69-.54-3.28-.5-5.1a35.18,35.18,0,0,0-.46-5.89c-1.1-7.3-4-15-1-22.19h-2.89l.5,1.78a1.52,1.52,0,0,0,2.74.36l.71-1.22-2.75-1.16-.62,2.82a1.52,1.52,0,0,0,1.85,1.84l-.63-1.11c-1.26,1.44.81,3.55,2.12,2.12l1.35-1.48a1.52,1.52,0,0,0-.66-2.5,3.25,3.25,0,0,0-3.32.69h2.12a1.08,1.08,0,0,1-.29-.64,1.53,1.53,0,0,0-2.56-1.06,20.4,20.4,0,0,0-3.51,3.5l2.56,1.07.38-6.74a1.52,1.52,0,0,0-2.56-1.06,31.93,31.93,0,0,0-4.79,5.2l2.8.76a6.61,6.61,0,0,1,1.49-3.9l-2.36-1.82-4.41,6.2,2.74,1.16a35.15,35.15,0,0,1,2.12-7.12c.62-1.46-1.06-3.13-2.36-1.82l-4,4,2.51.66a4.47,4.47,0,0,1,1-3.37c.94-1.26-.84-2.76-2-2.06l-1.66,1L134,179c.6-1.85,3.12-2.22,4.73-1.62,2.33.88,3.81,3.26,5,5.28,1,1.65,3.6.14,2.59-1.51-1.77-2.93-4.13-6.22-7.73-6.89-3.11-.58-6.5.8-7.53,3.94a1.52,1.52,0,0,0,2.21,1.69l1.66-1-2.06-2a7.42,7.42,0,0,0-1.28,5.69,1.51,1.51,0,0,0,2.51.66l4-4-2.35-1.82a37.84,37.84,0,0,0-2.42,7.84,1.51,1.51,0,0,0,2.74,1.15l4.41-6.19c1-1.38-1.27-3.14-2.35-1.82a10,10,0,0,0-2.37,6c-.09,1.63,2,1.83,2.79.75a29.81,29.81,0,0,1,4.32-4.59l-2.56-1.06-.38,6.74c-.07,1.21,1.75,2.09,2.56,1.06a20.1,20.1,0,0,1,3.51-3.51l-2.56-1.06a4.86,4.86,0,0,0,1.17,2.76,1.52,1.52,0,0,0,2.12,0,.3.3,0,0,1,.4.08l-.66-2.51-1.35,1.48,2.12,2.12a2.36,2.36,0,0,0-2.29-3.9l1.85,1.85.62-2.82a1.51,1.51,0,0,0-2.74-1.16L144,181.8l2.74.36-.5-1.77a1.51,1.51,0,0,0-2.89,0c-2.59,6.28-1.06,13.12.25,19.5a39.92,39.92,0,0,1,1.08,10.55,9.19,9.19,0,0,0,.53,4.56c.29.64.73,1.24,1,1.91a4.82,4.82,0,0,1,.12,1.12l1.3.74-3.13-5.34a1.52,1.52,0,0,0-2.59,0l-3.26,5.76,2.74.36-.26-1.84c-.24-1.69-3-1.26-3,.4a10,10,0,0,1-1.24,5.08l2.74,1.16a4.63,4.63,0,0,0-5.51-5.49c-1.64.38-2.88,1.43-2.62,3.2a5,5,0,0,0,2.69,3.71,1.51,1.51,0,0,0,2.2-.9,10.28,10.28,0,0,0-2.74-9.29c-1.35-1.39-3.47.74-2.12,2.12Z"/><path class="cls-2" d="M147.8,186.7a1.5,1.5,0,0,0,0-3,1.5,1.5,0,0,0,0,3Z"/><path class="cls-2" d="M86.67,221.68a8.11,8.11,0,0,1,.72-1.11l-.23.31a7.67,7.67,0,0,1,1.36-1.37l-.3.24c.2-.16.4-.3.61-.44a1.5,1.5,0,0,0,.54-2.05,1.5,1.5,0,0,0-2.05-.54,9.46,9.46,0,0,0-3.24,3.44,1.62,1.62,0,0,0-.15,1.16,1.5,1.5,0,0,0,1.85,1.05,1.5,1.5,0,0,0,.89-.69Z"/><path class="cls-2" d="M91.8,224.83a1.5,1.5,0,0,0,0-3,1.5,1.5,0,0,0,0,3Z"/><path class="cls-2" d="M92.07,225.63a1.5,1.5,0,0,0,0-3,1.5,1.5,0,0,0,0,3Z"/><path class="cls-2" d="M133.13,224.83a1.5,1.5,0,0,0,0-3,1.5,1.5,0,0,0,0,3Z"/><path class="cls-2" d="M92.6,224.83a1.5,1.5,0,0,0,0-3,1.5,1.5,0,0,0,0,3Z"/><path class="cls-2" d="M148.33,185.1a1.5,1.5,0,0,0,0-3,1.5,1.5,0,0,0,0,3Z"/></g></g></svg>