<svg xmlns="http://www.w3.org/2000/svg" viewBox="0 0 1921.91 1081.49"><defs><style>.cls-1,.cls-2{fill:#005c05;}.cls-1,.cls-4{stroke:#006700;stroke-miterlimit:10;}.cls-3{fill:#006700;}.cls-4{fill:none;}</style></defs><title>Asset 1</title><g id="Layer_2" data-name="Layer 2"><g id="Layer_1-2" data-name="Layer 1"><polyline class="cls-1" points="1.76 56.11 345.01 541.34 307.01 559.24 1.76 127.73"/><polyline class="cls-1" points="2.41 1026.98 344.86 542.88 308.38 525.69 0.41 961.04"/><path class="cls-2" d="M318.92,533.42V552"/><path class="cls-3" d="M317.42,533.42V552a1.5,1.5,0,0,0,3,0V533.42a1.5,1.5,0,0,0-3,0Z"/><path class="cls-2" d="M312.1,528.57l.08,8.14-3.34-5.41c3.17-1.48,4.59-5,3.1-7.77l3.12,9,1-5.25L322.77,538v-7.61c2.13-1.54,5.8-.09,6.78,2.09s.16,4.59-.66,6.81l-1.1-4.47c-7.85,1.36-16.48-3.48-17.73-10l-3.55,8.78-3.81-5.3c6,2.47,9.16,8.69,7.13,13.9a19.83,19.83,0,0,1-7.15-13.83c5.91-1.27,12.12-2.54,18-1.32S332,533,330.82,537.86a7.67,7.67,0,0,1,5.78-2"/><path class="cls-3" d="M310.6,528.57l.08,8.14,2.8-.76-3.35-5.4-.54,2.05c3.64-1.82,5.54-6.07,3.64-9.82-.75-1.51-3.3-.46-2.74,1.15l3.12,9c.44,1.29,2.58,1.56,2.89,0l1-5.26-2.74.36,6.68,10.71a1.51,1.51,0,0,0,2.79-.75v-7.61l-.74,1.3a3.46,3.46,0,0,1,4.23.79c1.58,1.72.36,4.56-.32,6.41h2.89l-1.09-4.47a1.54,1.54,0,0,0-1.85-1c-6.13,1-14.47-2.24-15.89-8.91-.34-1.6-2.39-1.24-2.89,0l-3.55,8.78,2.74-.35L304,527.59l-2.05,2.06c4.72,2,8.37,7,6.44,12.2l2.51-.66a18.74,18.74,0,0,1-6.71-12.77l-1.1,1.44c5.81-1.24,12.1-2.65,18-1.14,3.67.95,9.26,4.16,8.3,8.74a1.51,1.51,0,0,0,2.51,1.46,6.36,6.36,0,0,1,4.72-1.6c1.93.07,1.93-2.93,0-3a9.35,9.35,0,0,0-6.84,2.48l2.5,1.46c1.22-5.82-4-10.19-8.92-12-6.72-2.43-14.31-.76-21.06.68a1.51,1.51,0,0,0-1.1,1.45,21.7,21.7,0,0,0,7.59,14.89,1.52,1.52,0,0,0,2.5-.66c2.36-6.39-1.94-13.07-7.82-15.59-1.2-.52-3,.67-2.05,2.05l3.81,5.3a1.52,1.52,0,0,0,2.74-.36l3.55-8.78h-2.89c1.78,8.38,11.91,12.23,19.58,11l-1.85-1,1.1,4.47c.38,1.54,2.41,1.3,2.89,0,.87-2.35,1.67-5,.75-7.41a6.41,6.41,0,0,0-4.24-3.73c-1.51-.47-4.43-.55-5.36,1.09-.56,1-.21,2.74-.21,3.84V538l2.8-.76-6.68-10.71a1.52,1.52,0,0,0-2.74.36l-1,5.25h2.89l-3.12-9-2.74,1.16c1.18,2.33-.48,4.68-2.56,5.72a1.52,1.52,0,0,0-.54,2l3.35,5.4a1.51,1.51,0,0,0,2.79-.75l-.08-8.14a1.5,1.5,0,0,0-3,0Z"/><path class="cls-2" d="M300.36,534.39l2.47.13a7.61,7.61,0,0,1-3.28,1c7.45-2.54,15.52,2,23.54,2.77,4.46.43,10,.09,12.26,3.28a3.58,3.58,0,0,1,.9-1.69l2.05,1.47"/><path class="cls-3" d="M300.36,535.89l2.47.13-.76-2.79a6.38,6.38,0,0,1-2.52.77l.4,3c6.27-2,12.75.85,18.87,2.15a65,65,0,0,0,8.57,1c2.14.17,5.24.33,6.66,2.23a1.52,1.52,0,0,0,2.74-.35,2.64,2.64,0,0,1,.52-1l-1.81.24,2.05,1.46c1.57,1.13,3.07-1.47,1.51-2.59L337,538.57a1.5,1.5,0,0,0-1.82.23,6.09,6.09,0,0,0-1.29,2.35l2.74-.36c-1.73-2.32-4.34-3.13-7.1-3.49-3.17-.42-6.35-.37-9.49-1-6.84-1.38-13.9-4.5-20.9-2.23-1.52.49-1.37,3.11.4,2.94a10.2,10.2,0,0,0,4-1.18,1.52,1.52,0,0,0-.76-2.8l-2.47-.13c-1.93-.1-1.92,2.9,0,3Z"/><polyline class="cls-1" points="296.05 0.36 680.16 543.34 642.16 561.24 245.39 0.36"/><polyline class="cls-1" points="301.21 1080.36 680.01 544.88 643.53 527.69 252.56 1080.36"/><path class="cls-2" d="M654.07,535.42V554"/><path class="cls-3" d="M652.57,535.42V554a1.5,1.5,0,0,0,3,0V535.42a1.5,1.5,0,0,0-3,0Z"/><path class="cls-2" d="M647.24,530.57l.09,8.14L644,533.3c3.18-1.48,4.6-5,3.11-7.77l3.11,9,1-5.25L657.92,540v-7.61c2.12-1.54,5.8-.09,6.78,2.09s.16,4.59-.66,6.81l-1.1-4.47c-7.85,1.36-16.48-3.48-17.73-10l-3.56,8.78-3.81-5.3c6,2.47,9.17,8.69,7.13,13.9a19.86,19.86,0,0,1-7.14-13.83c5.91-1.27,12.12-2.54,18-1.32S667.12,535,666,539.86a7.67,7.67,0,0,1,5.78-2"/><path class="cls-3" d="M645.74,530.57l.09,8.14,2.79-.76-3.34-5.4-.54,2.05c3.64-1.82,5.54-6.07,3.64-9.82-.76-1.51-3.3-.46-2.74,1.15l3.12,9c.44,1.29,2.58,1.56,2.89,0l1-5.26L650,530l6.68,10.71a1.51,1.51,0,0,0,2.79-.75v-7.61l-.74,1.3a3.46,3.46,0,0,1,4.23.79c1.58,1.72.36,4.56-.32,6.41h2.89l-1.1-4.47a1.53,1.53,0,0,0-1.84-1c-6.14,1-14.47-2.24-15.89-8.91-.34-1.6-2.39-1.24-2.89,0l-3.55,8.78,2.74-.35-3.81-5.31-2,2.06c4.72,2,8.37,7,6.44,12.2l2.51-.66a18.74,18.74,0,0,1-6.71-12.77l-1.1,1.44c5.81-1.24,12.1-2.65,18-1.14,3.67.95,9.26,4.16,8.3,8.74a1.51,1.51,0,0,0,2.51,1.46,6.34,6.34,0,0,1,4.72-1.6c1.93.07,1.92-2.93,0-3a9.39,9.39,0,0,0-6.85,2.48l2.51,1.46c1.22-5.82-4-10.19-8.92-12-6.72-2.43-14.31-.76-21.06.68a1.5,1.5,0,0,0-1.1,1.45,21.73,21.73,0,0,0,7.58,14.89,1.52,1.52,0,0,0,2.51-.66c2.36-6.39-1.94-13.07-7.82-15.59-1.2-.52-3,.67-2.05,2.05l3.81,5.3a1.52,1.52,0,0,0,2.74-.36l3.55-8.78h-2.89c1.78,8.38,11.91,12.23,19.58,11l-1.85-1,1.1,4.47c.38,1.54,2.41,1.3,2.89,0,.87-2.35,1.67-5,.75-7.41a6.4,6.4,0,0,0-4.25-3.73c-1.51-.47-4.42-.55-5.35,1.09-.56,1-.21,2.74-.21,3.84V540l2.8-.76-6.68-10.71a1.52,1.52,0,0,0-2.74.36l-1,5.25h2.89l-3.12-9-2.74,1.16c1.18,2.33-.48,4.68-2.56,5.72a1.51,1.51,0,0,0-.54,2l3.34,5.4a1.51,1.51,0,0,0,2.8-.75l-.09-8.14a1.5,1.5,0,0,0-3,0Z"/><path class="cls-2" d="M635.51,536.39l2.47.13a7.61,7.61,0,0,1-3.28,1c7.45-2.54,15.51,2,23.54,2.77,4.46.43,10,.09,12.26,3.28a3.58,3.58,0,0,1,.9-1.69l2.05,1.47"/><path class="cls-3" d="M635.51,537.89,638,538l-.76-2.79a6.38,6.38,0,0,1-2.52.77l.4,3c6.26-2,12.75.85,18.87,2.15a64.78,64.78,0,0,0,8.57,1c2.14.17,5.24.33,6.66,2.23a1.52,1.52,0,0,0,2.74-.35,2.51,2.51,0,0,1,.52-1l-1.82.24,2.05,1.46c1.58,1.13,3.08-1.47,1.52-2.59l-2.05-1.46a1.5,1.5,0,0,0-1.82.23,6,6,0,0,0-1.29,2.35l2.74-.36c-1.73-2.32-4.34-3.13-7.11-3.49-3.16-.42-6.35-.37-9.48-1-6.84-1.38-13.9-4.5-20.9-2.23-1.52.49-1.37,3.11.4,2.94a10.25,10.25,0,0,0,4-1.18A1.52,1.52,0,0,0,638,535l-2.47-.13c-1.93-.1-1.92,2.9,0,3Z"/><polyline class="cls-1" points="640.64 0.36 1020.51 537.34 982.51 555.24 589.98 0.36"/><polyline class="cls-1" points="637.31 1080.36 1020.36 538.88 983.88 521.69 588.67 1080.36"/><path class="cls-2" d="M994.41,529.42V548"/><path class="cls-3" d="M992.91,529.42V548a1.5,1.5,0,0,0,3,0V529.42a1.5,1.5,0,0,0-3,0Z"/><path class="cls-2" d="M987.59,524.57l.08,8.14-3.34-5.41c3.17-1.48,4.59-5,3.1-7.77l3.12,9,1-5.25L998.27,534v-7.61c2.12-1.54,5.79-.09,6.78,2.09s.16,4.59-.67,6.81l-1.1-4.47c-7.85,1.36-16.47-3.48-17.73-10L982,529.65l-3.81-5.3c6,2.47,9.16,8.69,7.13,13.9a19.82,19.82,0,0,1-7.14-13.83c5.9-1.27,12.11-2.54,18-1.32s11.26,5.87,10.1,10.76a7.67,7.67,0,0,1,5.78-2"/><path class="cls-3" d="M986.09,524.57l.08,8.14L989,532l-3.34-5.4-.54,2.05c3.64-1.82,5.53-6.07,3.64-9.82-.76-1.51-3.3-.46-2.74,1.15l3.11,9c.45,1.29,2.59,1.56,2.9,0l1-5.26-2.74.36L997,534.75a1.51,1.51,0,0,0,2.8-.75v-7.61l-.74,1.3a3.45,3.45,0,0,1,4.22.79c1.58,1.72.37,4.56-.31,6.41h2.89l-1.1-4.47a1.53,1.53,0,0,0-1.85-1c-6.13,1-14.47-2.24-15.88-8.91-.34-1.6-2.4-1.24-2.89,0l-3.56,8.78,2.74-.35-3.8-5.31-2.06,2.06c4.73,2,8.38,7,6.44,12.2l2.51-.66a18.69,18.69,0,0,1-6.7-12.77l-1.1,1.44c5.8-1.24,12.09-2.65,18-1.14,3.67.95,9.25,4.16,8.29,8.74a1.51,1.51,0,0,0,2.51,1.46,6.36,6.36,0,0,1,4.72-1.6c1.93.07,1.93-2.93,0-3a9.36,9.36,0,0,0-6.84,2.48l2.51,1.46c1.21-5.82-4-10.19-8.92-12-6.73-2.43-14.32-.76-21.06.68a1.5,1.5,0,0,0-1.1,1.45,21.65,21.65,0,0,0,7.58,14.89,1.52,1.52,0,0,0,2.51-.66c2.36-6.39-1.94-13.07-7.82-15.59-1.2-.52-3,.67-2.05,2.05l3.8,5.3a1.53,1.53,0,0,0,2.75-.36l3.55-8.78h-2.89c1.77,8.38,11.91,12.23,19.57,11l-1.84-1,1.1,4.47c.37,1.54,2.41,1.3,2.89,0,.87-2.35,1.67-5,.74-7.41a6.36,6.36,0,0,0-4.24-3.73c-1.51-.47-4.42-.55-5.36,1.09-.55,1-.2,2.74-.2,3.84V534l2.79-.76-6.68-10.71a1.52,1.52,0,0,0-2.74.36l-1,5.25H992l-3.12-9-2.74,1.16c1.18,2.33-.49,4.68-2.57,5.72a1.51,1.51,0,0,0-.53,2l3.34,5.4a1.51,1.51,0,0,0,2.79-.75l-.08-8.14a1.5,1.5,0,0,0-3,0Z"/><path class="cls-2" d="M975.86,530.39l2.47.13a7.61,7.61,0,0,1-3.29,1c7.46-2.54,15.52,2,23.54,2.77,4.46.43,10,.09,12.26,3.28a3.6,3.6,0,0,1,.91-1.69l2,1.47"/><path class="cls-3" d="M975.86,531.89l2.47.13-.76-2.79A6.42,6.42,0,0,1,975,530l.4,3c6.27-2,12.76.85,18.87,2.15a65.16,65.16,0,0,0,8.57,1c2.15.17,5.25.33,6.67,2.23a1.52,1.52,0,0,0,2.74-.35,2.4,2.4,0,0,1,.52-1l-1.82.24,2,1.46c1.57,1.13,3.07-1.47,1.51-2.59l-2-1.46a1.49,1.49,0,0,0-1.81.23,6.11,6.11,0,0,0-1.3,2.35l2.75-.36c-1.73-2.32-4.34-3.13-7.11-3.49-3.16-.42-6.35-.37-9.49-1-6.83-1.38-13.9-4.5-20.9-2.23-1.52.49-1.36,3.11.4,2.94a10.2,10.2,0,0,0,4-1.18,1.51,1.51,0,0,0-.75-2.8l-2.47-.13c-1.93-.1-1.93,2.9,0,3Z"/><polyline class="cls-1" points="977.81 0.36 1360.51 541.34 1322.51 559.24 927.15 0.36"/><polyline class="cls-1" points="980.14 1080.36 1360.36 542.88 1323.88 525.69 931.5 1080.36"/><path class="cls-2" d="M1334.41,533.42V552"/><path class="cls-3" d="M1332.91,533.42V552a1.5,1.5,0,0,0,3,0V533.42a1.5,1.5,0,0,0-3,0Z"/><path class="cls-2" d="M1327.59,528.57l.08,8.14-3.34-5.41c3.17-1.48,4.59-5,3.1-7.77l3.12,9,1-5.25,6.68,10.71v-7.61c2.12-1.54,5.79-.09,6.78,2.09s.16,4.59-.67,6.81l-1.1-4.47c-7.85,1.36-16.47-3.48-17.73-10l-3.55,8.78-3.81-5.3c6,2.47,9.16,8.69,7.13,13.9a19.82,19.82,0,0,1-7.14-13.83c5.9-1.27,12.11-2.54,18-1.32s11.26,5.87,10.1,10.76a7.67,7.67,0,0,1,5.78-2"/><path class="cls-3" d="M1326.09,528.57l.08,8.14,2.8-.76-3.34-5.4-.54,2.05c3.64-1.82,5.53-6.07,3.64-9.82-.76-1.51-3.3-.46-2.74,1.15l3.11,9c.45,1.29,2.59,1.56,2.9,0l1-5.26-2.74.36,6.68,10.71a1.51,1.51,0,0,0,2.8-.75v-7.61l-.74,1.3a3.45,3.45,0,0,1,4.22.79c1.58,1.72.37,4.56-.31,6.41h2.89l-1.1-4.47a1.53,1.53,0,0,0-1.85-1c-6.13,1-14.47-2.24-15.88-8.91-.34-1.6-2.4-1.24-2.89,0l-3.56,8.78,2.74-.35-3.8-5.31-2.06,2.06c4.73,2,8.38,7,6.44,12.2l2.51-.66a18.69,18.69,0,0,1-6.7-12.77l-1.1,1.44c5.8-1.24,12.09-2.65,18-1.14,3.67.95,9.25,4.16,8.29,8.74a1.51,1.51,0,0,0,2.51,1.46,6.36,6.36,0,0,1,4.72-1.6c1.93.07,1.93-2.93,0-3a9.36,9.36,0,0,0-6.84,2.48l2.51,1.46c1.21-5.82-4-10.19-8.92-12-6.73-2.43-14.32-.76-21.06.68a1.5,1.5,0,0,0-1.1,1.45,21.65,21.65,0,0,0,7.58,14.89,1.52,1.52,0,0,0,2.51-.66c2.36-6.39-1.94-13.07-7.82-15.59-1.2-.52-3,.67-2,2.05l3.8,5.3a1.53,1.53,0,0,0,2.75-.36l3.55-8.78h-2.89c1.77,8.38,11.91,12.23,19.57,11l-1.84-1,1.1,4.47c.37,1.54,2.41,1.3,2.89,0,.87-2.35,1.67-5,.74-7.41a6.36,6.36,0,0,0-4.24-3.73c-1.51-.47-4.42-.55-5.36,1.09-.55,1-.2,2.74-.2,3.84V538l2.79-.76-6.68-10.71a1.52,1.52,0,0,0-2.74.36l-1,5.25h2.9l-3.12-9-2.74,1.16c1.18,2.33-.49,4.68-2.57,5.72a1.51,1.51,0,0,0-.53,2l3.34,5.4a1.51,1.51,0,0,0,2.79-.75l-.08-8.14a1.5,1.5,0,0,0-3,0Z"/><path class="cls-2" d="M1315.86,534.39l2.47.13a7.61,7.61,0,0,1-3.29,1c7.46-2.54,15.52,2,23.54,2.77,4.46.43,10,.09,12.26,3.28a3.6,3.6,0,0,1,.91-1.69l2,1.47"/><path class="cls-3" d="M1315.86,535.89l2.47.13-.76-2.79a6.42,6.42,0,0,1-2.53.77l.4,3c6.27-2,12.76.85,18.87,2.15a65.16,65.16,0,0,0,8.57,1c2.15.17,5.25.33,6.67,2.23a1.52,1.52,0,0,0,2.74-.35,2.4,2.4,0,0,1,.52-1l-1.82.24,2,1.46c1.57,1.13,3.07-1.47,1.51-2.59l-2-1.46a1.49,1.49,0,0,0-1.81.23,6.11,6.11,0,0,0-1.3,2.35l2.75-.36c-1.73-2.32-4.34-3.13-7.11-3.49-3.16-.42-6.35-.37-9.49-1-6.83-1.38-13.9-4.5-20.9-2.23-1.52.49-1.36,3.11.4,2.94a10.2,10.2,0,0,0,4-1.18,1.51,1.51,0,0,0-.75-2.8l-2.47-.13c-1.93-.1-1.93,2.9,0,3Z"/><polyline class="cls-1" points="1317.64 0.36 1701.75 543.34 1663.75 561.24 1266.97 0.36"/><polyline class="cls-1" points="1322.8 1080.36 1701.6 544.88 1665.11 527.69 1274.15 1080.36"/><path class="cls-2" d="M1675.65,535.42V554"/><path class="cls-3" d="M1674.15,535.42V554a1.5,1.5,0,0,0,3,0V535.42a1.5,1.5,0,0,0-3,0Z"/><path class="cls-2" d="M1668.83,530.57l.08,8.14-3.34-5.41c3.17-1.48,4.59-5,3.1-7.77l3.12,9,1-5.25,6.68,10.71v-7.61c2.12-1.54,5.79-.09,6.78,2.09s.16,4.59-.67,6.81l-1.1-4.47c-7.85,1.36-16.47-3.48-17.73-10l-3.55,8.78-3.81-5.3c6,2.47,9.16,8.69,7.13,13.9a19.82,19.82,0,0,1-7.14-13.83c5.9-1.27,12.11-2.54,18-1.32s11.26,5.87,10.1,10.76a7.67,7.67,0,0,1,5.78-2"/><path class="cls-3" d="M1667.33,530.57l.08,8.14,2.8-.76-3.35-5.4-.53,2.05c3.64-1.82,5.53-6.07,3.64-9.82-.76-1.51-3.3-.46-2.74,1.15l3.11,9c.45,1.29,2.59,1.56,2.9,0l1-5.26-2.74.36,6.68,10.71a1.51,1.51,0,0,0,2.8-.75v-7.61l-.75,1.3a3.46,3.46,0,0,1,4.23.79c1.58,1.72.37,4.56-.32,6.41h2.9l-1.1-4.47a1.53,1.53,0,0,0-1.85-1c-6.13,1-14.47-2.24-15.88-8.91-.34-1.6-2.4-1.24-2.9,0l-3.55,8.78,2.74-.35-3.81-5.31-2,2.06c4.73,2,8.38,7,6.44,12.2l2.51-.66a18.69,18.69,0,0,1-6.7-12.77l-1.11,1.44c5.81-1.24,12.1-2.65,18-1.14,3.67.95,9.25,4.16,8.29,8.74a1.51,1.51,0,0,0,2.51,1.46,6.36,6.36,0,0,1,4.72-1.6c1.93.07,1.93-2.93,0-3a9.36,9.36,0,0,0-6.84,2.48l2.51,1.46c1.21-5.82-4-10.19-8.92-12-6.73-2.43-14.32-.76-21.06.68a1.5,1.5,0,0,0-1.1,1.45,21.65,21.65,0,0,0,7.58,14.89,1.52,1.52,0,0,0,2.51-.66c2.36-6.39-1.94-13.07-7.82-15.59-1.2-.52-3,.67-2.06,2.05l3.81,5.3a1.52,1.52,0,0,0,2.74-.36l3.56-8.78h-2.9c1.78,8.38,11.92,12.23,19.58,11l-1.84-1,1.09,4.47c.38,1.54,2.42,1.3,2.9,0,.86-2.35,1.66-5,.74-7.41a6.36,6.36,0,0,0-4.24-3.73c-1.51-.47-4.43-.55-5.36,1.09-.56,1-.2,2.74-.2,3.84V540l2.79-.76-6.68-10.71a1.52,1.52,0,0,0-2.74.36l-1,5.25h2.9l-3.12-9-2.74,1.16c1.17,2.33-.49,4.68-2.57,5.72a1.52,1.52,0,0,0-.54,2l3.35,5.4a1.51,1.51,0,0,0,2.79-.75l-.08-8.14a1.5,1.5,0,0,0-3,0Z"/><path class="cls-2" d="M1657.1,536.39l2.46.13a7.53,7.53,0,0,1-3.28,1c7.46-2.54,15.52,2,23.54,2.77,4.46.43,10,.09,12.26,3.28a3.6,3.6,0,0,1,.91-1.69l2,1.47"/><path class="cls-3" d="M1657.1,537.89l2.46.13-.75-2.79a6.47,6.47,0,0,1-2.53.77l.4,3c6.27-2,12.75.85,18.87,2.15a65,65,0,0,0,8.57,1c2.15.17,5.25.33,6.66,2.23a1.53,1.53,0,0,0,2.75-.35,2.4,2.4,0,0,1,.52-1l-1.82.24,2,1.46c1.57,1.13,3.07-1.47,1.51-2.59l-2-1.46a1.48,1.48,0,0,0-1.81.23,6,6,0,0,0-1.3,2.35l2.75-.36c-1.73-2.32-4.34-3.13-7.11-3.49-3.16-.42-6.35-.37-9.49-1-6.83-1.38-13.9-4.5-20.9-2.23-1.52.49-1.37,3.11.4,2.94a10.2,10.2,0,0,0,4-1.18,1.52,1.52,0,0,0-.76-2.8l-2.46-.13c-1.93-.1-1.93,2.9,0,3Z"/><path class="cls-1" d="M1659.15,1.16a43.88,43.88,0,0,1-5.24-.66,79.13,79.13,0,0,1-8.39.29c-6.82,0-13.63,1-20.45.66-5.24-.23-11.08.26-16.59-.31L1921.41,443.5V371.88Z"/><path class="cls-1" d="M1601.83,1080c1.07,0,2.13.06,3.19.09,4.85-.34,9.69-.66,14.55-.56,4.26.08,8.51.46,12.75.86,1.8,0,3.58.09,5.35.17a5.06,5.06,0,0,1,1-.4,5.34,5.34,0,0,1,4.17.72l1.68.13c.85-.14,1.7-.28,2.55-.45a5,5,0,0,1,2.86.2L1921.41,697V628.22Z"/><rect class="cls-4" x="591.91" y="301.86" width="164" height="84"/><line class="cls-4" x1="591.91" y1="343.86" x2="755.91" y2="343.86"/><line class="cls-4" x1="591.91" y1="321.86" x2="755.91" y2="321.86"/><line class="cls-4" x1="755.91" y1="364.86" x2="591.91" y2="364.86"/><rect class="cls-4" x="107.61" y="79.76" width="164" height="84"/><line class="cls-4" x1="107.61" y1="121.76" x2="271.61" y2="121.76"/><line class="cls-4" x1="107.61" y1="99.76" x2="271.61" y2="99.76"/><line class="cls-4" x1="271.61" y1="142.76" x2="107.61" y2="142.76"/><rect class="cls-4" x="1046.91" y="495.86" width="164" height="84"/><line class="cls-4" x1="1046.81" y1="537.76" x2="1210.81" y2="537.76"/><line class="cls-4" x1="1046.81" y1="515.76" x2="1210.81" y2="515.76"/><line class="cls-4" x1="1210.81" y1="558.76" x2="1046.81" y2="558.76"/><rect class="cls-4" x="1271.81" y="718.76" width="164" height="84"/><line class="cls-4" x1="1271.81" y1="760.76" x2="1435.81" y2="760.76"/><line class="cls-4" x1="1271.81" y1="738.76" x2="1435.81" y2="738.76"/><line class="cls-4" x1="1435.81" y1="781.76" x2="1271.81" y2="781.76"/><rect class="cls-4" x="1484.81" y="887.76" width="164" height="84"/><line class="cls-4" x1="1484.81" y1="929.76" x2="1648.81" y2="929.76"/><line class="cls-4" x1="1484.81" y1="907.76" x2="1648.81" y2="907.76"/><line class="cls-4" x1="1648.81" y1="950.76" x2="1484.81" y2="950.76"/><rect class="cls-4" x="1734.81" y="981.56" width="164" height="84"/><line class="cls-4" x1="1734.81" y1="1023.56" x2="1898.81" y2="1023.56"/><line class="cls-4" x1="1734.81" y1="1001.56" x2="1898.81" y2="1001.56"/><line class="cls-4" x1="1898.81" y1="1044.56" x2="1734.81" y2="1044.56"/><rect class="cls-4" x="25.61" y="503.16" width="164" height="84"/><line class="cls-4" x1="25.61" y1="545.16" x2="189.61" y2="545.16"/><line class="cls-4" x1="25.61" y1="523.16" x2="189.61" y2="523.16"/><line class="cls-4" x1="189.61" y1="566.16" x2="25.61" y2="566.16"/><rect class="cls-4" x="1735.01" y="14.16" width="164" height="84"/><line class="cls-4" x1="1735.01" y1="56.16" x2="1899.01" y2="56.16"/><line class="cls-4" x1="1735.01" y1="34.16" x2="1899.01" y2="34.16"/><line class="cls-4" x1="1899.01" y1="77.16" x2="1735.01" y2="77.16"/><rect class="cls-4" x="107.81" y="939.16" width="164" height="84"/><line class="cls-4" x1="107.81" y1="981.16" x2="271.81" y2="981.16"/><line class="cls-4" x1="107.81" y1="959.16" x2="271.81" y2="959.16"/><line class="cls-4" x1="271.81" y1="1002.16" x2="107.81" y2="1002.16"/><rect class="cls-4" x="589.81" y="726.16" width="164" height="84"/><line class="cls-4" x1="589.81" y1="768.16" x2="753.81" y2="768.16"/><line class="cls-4" x1="589.81" y1="746.16" x2="753.81" y2="746.16"/><line class="cls-4" x1="753.81" y1="789.16" x2="589.81" y2="789.16"/><rect class="cls-4" x="1269.81" y="290.16" width="164" height="84"/><line class="cls-4" x1="1269.81" y1="332.16" x2="1433.81" y2="332.16"/><line class="cls-4" x1="1269.81" y1="310.16" x2="1433.81" y2="310.16"/><line class="cls-4" x1="1433.81" y1="353.16" x2="1269.81" y2="353.16"/><rect class="cls-4" x="1484.81" y="122.16" width="164" height="84"/><line class="cls-4" x1="1484.81" y1="164.16" x2="1648.81" y2="164.16"/><line class="cls-4" x1="1484.81" y1="142.16" x2="1648.81" y2="142.16"/><line class="cls-4" x1="1648.81" y1="185.16" x2="1484.81" y2="185.16"/></g></g></svg>