<svg xmlns="http://www.w3.org/2000/svg" viewBox="0 0 131 185"><defs><style>.cls-1{fill:#ff452e;}.cls-2{fill:#ccc;}.cls-3{fill:#2d0073;}</style></defs><g id="Layer_2" data-name="Layer 2"><g id="Layer_1-2" data-name="Layer 1"><rect class="cls-1" x="0.5" y="53.5" width="130" height="131" rx="27.5"/><path d="M103,54a27,27,0,0,1,27,27v76a27,27,0,0,1-27,27H28A27,27,0,0,1,1,157V81A27,27,0,0,1,28,54h75m0-1H28A28,28,0,0,0,0,81v76a28,28,0,0,0,28,28h75a28,28,0,0,0,28-28V81a28,28,0,0,0-28-28Z"/><path class="cls-2" d="M47.87,0l-.21.2L47.43,0Z"/><path class="cls-2" d="M47.87,0l-.21.2L47.43,0Z"/><path class="cls-2" d="M47.87,0l-.21.2L47.43,0Z"/><path class="cls-2" d="M47.87,0l-.21.2L47.43,0Z"/><path class="cls-2" d="M47.87,0l-.21.2L47.43,0Z"/><path class="cls-2" d="M107.26,145.63l6.79-15-9.39-3.27a34.29,34.29,0,0,0,.84-16.44l9.5-3.94-6.55-14.59-9.68,4a35.33,35.33,0,0,0-9.19-8.13l4.22-9.34-16-5.58-4.22,9.34a42.58,42.58,0,0,0-14.12.61l-4.24-9.44L39,80.51l4.35,9.69A40.69,40.69,0,0,0,32,102.06L22.64,98.8l-6.79,15,10.77,3.75a33.31,33.31,0,0,0,.19,8.59l-10.35,4.28L23,145.06,32.87,141A35.4,35.4,0,0,0,43,150.31L39.06,159l16,5.58L59,155.89a42.63,42.63,0,0,0,13.58-.5l3.68,8.2,16.16-6.7-3.7-8.23a41.91,41.91,0,0,0,7.73-6.77ZM60.92,129.34l-.12-.27a3.7,3.7,0,0,0,.4.16Zm16.16-6.69.22-.09c0,.1-.08.2-.13.3Z"/><ellipse class="cls-3" cx="65.3" cy="118.94" rx="11.82" ry="11.08"/></g></g></svg>