<svg xmlns="http://www.w3.org/2000/svg" viewBox="0 0 98 258.51"><defs><style>.cls-1{fill:#732700;}.cls-2{fill:#fff;}.cls-3{fill:#a24400;}.cls-4{fill:#733400;}</style></defs><g id="Layer_2" data-name="Layer 2"><g id="Layer_1-2" data-name="Layer 1"><ellipse class="cls-1" cx="49" cy="116" rx="34.5" ry="45.5"/><path d="M49,71c18.75,0,34,20.19,34,45s-15.25,45-34,45-34-20.19-34-45S30.25,71,49,71m0-1c-19.33,0-35,20.59-35,46s15.67,46,35,46,35-20.59,35-46S68.33,70,49,70Z"/><ellipse class="cls-2" cx="35" cy="100.5" rx="7.5" ry="8"/><path d="M35,93a7.52,7.52,0,0,1,0,15,7.52,7.52,0,0,1,0-15m0-1a8.52,8.52,0,0,0,0,17,8.52,8.52,0,0,0,0-17Z"/><ellipse class="cls-2" cx="64" cy="100.5" rx="7.5" ry="8"/><path d="M64,93a7.52,7.52,0,1,1-7,7.5A7.27,7.27,0,0,1,64,93m0-1a8.52,8.52,0,1,0,8,8.5A8.26,8.26,0,0,0,64,92Z"/><path d="M27.75,82.15C11.17,75,.5,59.86.5,43.5.5,19.79,22.26.5,49,.5s48.5,19.29,48.5,43c0,16.14-10,30.73-26.17,38.17a5,5,0,0,0-3-2,5.06,5.06,0,0,0-4.11-2.15,5.07,5.07,0,0,0-4.1-2c-4.61-1.8-10-2-15.15-2-1.22,0-2.44,0-3.64,0L39,73.5a5.13,5.13,0,0,0-5.16,4.11,5.25,5.25,0,0,0-.56,0A5.76,5.76,0,0,0,27.75,82.15Z"/><path d="M49,1C75.47,1,97,20.07,97,43.5,97,59.32,87.25,73.63,71.49,81a5.41,5.41,0,0,0-2.87-1.83A5.48,5.48,0,0,0,64.47,77a5.57,5.57,0,0,0-4.27-2C55.54,73.2,50.12,73,45,73c-1.23,0-2.44,0-3.65,0L39,73a5.58,5.58,0,0,0-5.53,4.09h-.18a6.18,6.18,0,0,0-5.85,4.39C11.33,74.28,1,59.49,1,43.5,1,20.07,22.53,1,49,1m0-1C21.94,0,0,19.48,0,43.5,0,60.89,11.5,75.9,28.12,82.86a5.17,5.17,0,0,1,6.12-4.69A4.67,4.67,0,0,1,39,74c1.94,0,3.94,0,6,0,5.25,0,10.58.27,15,2A4.54,4.54,0,0,1,64,78h0a4.55,4.55,0,0,1,4,2.1,4.44,4.44,0,0,1,3.12,2.2C87.07,75.12,98,60.45,98,43.5,98,19.48,76.06,0,49,0Z"/><ellipse class="cls-3" cx="35" cy="100.5" rx="2.5" ry="3"/><path d="M35,98a2.56,2.56,0,0,1,0,5,2.56,2.56,0,0,1,0-5m0-1a3.54,3.54,0,0,0,0,7,3.54,3.54,0,0,0,0-7Z"/><ellipse class="cls-3" cx="64" cy="100.5" rx="2.5" ry="3"/><path d="M64,98a2.56,2.56,0,1,1-2,2.5A2.3,2.3,0,0,1,64,98m0-1a3.54,3.54,0,1,0,3,3.5A3.28,3.28,0,0,0,64,97Z"/><path d="M27.56,90.68c2.32-1.41,4.26-4.15,7.23-4s5.49,2.62,7.48,4.53c1.39,1.35,3.51-.77,2.12-2.12C41.8,86.6,38.77,84,35,83.7a7.86,7.86,0,0,0-4.95,1.35c-1.41.93-2.6,2.16-4,3-1.65,1-.14,3.6,1.51,2.59Z"/><path d="M56.5,91.09c2.32-1.41,4.27-4.15,7.23-4s5.5,2.61,7.48,4.53c1.39,1.34,3.51-.78,2.12-2.12C70.75,87,67.71,84.44,64,84.1A7.83,7.83,0,0,0,59,85.46c-1.42.92-2.6,2.15-4,3-1.65,1-.14,3.59,1.51,2.59Z"/><ellipse class="cls-4" cx="49.5" cy="132.5" rx="12" ry="4"/><path d="M49.5,129c7,0,11.5,2.07,11.5,3.5S56.52,136,49.5,136,38,133.93,38,132.5s4.48-3.5,11.5-3.5m0-1c-6.9,0-12.5,2-12.5,4.5s5.6,4.5,12.5,4.5S62,135,62,132.5,56.4,128,49.5,128Z"/><ellipse class="cls-4" cx="49.5" cy="141.5" rx="12" ry="4"/><path d="M49.5,138c7,0,11.5,2.07,11.5,3.5S56.52,145,49.5,145,38,142.93,38,141.5s4.48-3.5,11.5-3.5m0-1c-6.9,0-12.5,2-12.5,4.5s5.6,4.5,12.5,4.5S62,144,62,141.5,56.4,137,49.5,137Z"/><path d="M48.05,161l1.56,49.58c.06,1.92,3.06,1.93,3,0L51.05,161C51,159,48,159,48.05,161Z"/><path d="M49.86,212.21c.07,3.26-2.87,5.51-5.25,7.26a81.81,81.81,0,0,0-8.19,6.66A65.35,65.35,0,0,0,19,254.64c-.55,1.85,2.34,2.64,2.9.8A62.4,62.4,0,0,1,31.69,236,61.18,61.18,0,0,1,39,227.85c2.61-2.46,5.5-4.49,8.33-6.69s5.63-5.06,5.55-8.95c0-1.92-3-1.93-3,0Z"/><path d="M52.4,215.29a41.48,41.48,0,0,1,16.41,11.77,48.14,48.14,0,0,1,5.88,9.1,113.49,113.49,0,0,0,6,10.62c2.51,3.81,5.26,7.46,8,11.1,1.15,1.52,3.76,0,2.59-1.52-2.56-3.39-5.13-6.79-7.5-10.32a106,106,0,0,1-6.25-10.78,48.18,48.18,0,0,0-13.8-17A44.19,44.19,0,0,0,53.2,212.4c-1.8-.71-2.58,2.19-.8,2.89Z"/><path d="M19.42,185.66q28.5,2.29,57.11,2.52,8.19.06,16.4-.05a1.5,1.5,0,0,0,0-3q-28.59.39-57.15-1.32-8.19-.5-16.36-1.15c-1.93-.16-1.92,2.84,0,3Z"/></g></g></svg>